<?xml version="1.0" standalone="no"?>
<!DOCTYPE svg PUBLIC "-//W3C//DTD SVG 1.1//EN" "http://www.w3.org/Graphics/SVG/1.1/DTD/svg11.dtd" >
<svg xmlns="http://www.w3.org/2000/svg">
<metadata>
<json>
<![CDATA[
{
	"fontFamily": "Chess",
	"majorVersion": 1,
	"minorVersion": 9,
	"designer": "Salvatore Santagati",
	"designerURL": "https://www.salsan.dev/",
	"description": "Chess Font\nFont generated by IcoMoon.",
	"version": "Version 1.9",
	"fontId": "Chess",
	"psName": "Chess",
	"subFamily": "Regular",
	"fullName": "Chess"
}
]]>
</json>
</metadata>
<defs>
<font id="Chess" horiz-adv-x="1024">
<font-face units-per-em="1024" ascent="960" descent="-64" />
<missing-glyph horiz-adv-x="1024" />
<glyph unicode="&#x20;" horiz-adv-x="512" d="" />
<glyph unicode="&#xe900;" glyph-name="chesscom-logo" data-tags="Chess.com Logo" horiz-adv-x="625" d="M534.929 240.985q87.025-65.929 87.025-199.104 0-7.911-10.549-18.46t-88.343-26.371-213.608-15.823-213.608 15.823-88.343 26.371-10.549 18.46q0 54.062 15.823 97.573v1.319q21.097 63.292 71.203 100.211 134.494 102.848 141.086 230.749v35.601h-94.936q-17.141 30.327-17.141 63.292l108.122 72.522q-61.973 44.832-61.973 121.308 0 61.973 44.172 106.144t106.144 44.172q27.69 0 55.38-10.549l1.319-1.319q40.876-15.823 67.247-54.062t26.371-84.389q0-76.477-61.973-121.308l108.122-72.522q0-29.009-17.141-63.292h-94.936v-21.097q0-21.097 1.319-30.327t5.274-32.305 13.845-41.535 24.394-42.854 39.557-48.787 56.699-49.447z" />
<glyph unicode="&#xe901;" glyph-name="chesscom-bullet" data-tags="Chess.com Bullet" horiz-adv-x="733" d="M147.536 582.805h-88.466v51.605h88.466v-51.605zM719.405 480.648q13.691-13.691 13.691-33.701t-13.691-34.754q-137.965-153.762-346.492-153.762h-174.826v375.98h174.826q208.527 0 346.492-153.762zM602.504 514.349l1.053-1.053h2.106l-2.106 2.106q-37.914 25.276-78.987 41.073-68.456 26.329-151.656 26.329h-123.22v-52.658h117.955q127.433 0 234.856-15.797zM147.536 474.329h-147.443v51.605h147.443v-51.605zM147.536 366.906h-147.443v51.605h147.443v-51.605zM147.536 258.43h-88.466v51.605h88.466v-51.605z" />
<glyph unicode="&#xe902;" glyph-name="chesscom-blitz" data-tags="Chess.com Blitz" horiz-adv-x="625" d="M544.837 960h-384.731l-117.029-538.331h190.171l-103.863-485.669h61.44l406.674 643.657h-207.726z" />
<glyph unicode="&#xe903;" glyph-name="chesscom-rapid" data-tags="Chess.com Rapid" horiz-adv-x="634" d="M361.985 735.316v-28.625q115.561-15.904 194.019-104.962t78.454-207.802q0-131.465-92.769-224.234t-224.234-92.769-224.234 92.769-92.769 224.234q0 118.744 78.454 207.802t194.019 104.962v28.625h-51.95v83.758h192.959v-83.758h-51.95zM317.456 180.827q87.997 0 150.551 62.555t62.555 150.551-62.555 150.019-150.551 62.022-150.019-62.022-62.022-150.019 62.022-150.551 150.019-62.555zM261.262 363.181l28.625 172.816h56.189l27.564-172.816-56.189-54.072z" />
<glyph unicode="&#xe904;" glyph-name="address-card-solid" data-tags="membership card" horiz-adv-x="1152" d="M1024 896h-896c-70.7 0-128-57.3-128-128v-640c0-70.7 57.3-128 128-128h896c70.7 0 128 57.3 128 128v640c0 70.7-57.4 128-128 128zM352 704c70.7 0 128-57.3 128-128s-57.3-128-128-128-128 57.3-128 128 57.4 128 128 128zM544 192h-384c-17.68 0-32 14.4-32 32 0 88.4 71.64 160 160 160h128c88.36 0 160-71.64 160-160 0-17.6-14.4-32-32-32zM992 320h-256c-17.6 0-32 14.4-32 32s14.4 32 32 32h256c17.6 0 32-14.4 32-32s-14.4-32-32-32zM992 448h-256c-17.6 0-32 14.4-32 32s14.4 32 32 32h256c17.6 0 32-14.4 32-32s-14.4-32-32-32zM992 576h-256c-17.6 0-32 14.4-32 32s14.4 32 32 32h256c17.6 0 32-14.4 32-32s-14.4-32-32-32z" />
<glyph unicode="&#xe905;" glyph-name="trophy-solid" data-tags="Trophy Cup" horiz-adv-x="1152" d="M1144.2 795.24c-5.2 21.58-24.6 36.76-46.8 36.76h-201.6c0.484 24.9 0.216 47.4-0.312 66.040-0.888 34.7-29.088 61.96-63.888 61.96h-511.2c-34.8 0-63-27.26-64-61.96-2.2-18.64-0.8-41.14-0.2-66.040h-201.68c-22.2 0-41.446-15.18-46.696-36.76-1.624-6.8-39.244-169.64 66.316-327.040 74.88-111.64 201.2-190.060 375-234.8 37.4-9.61 62.82-44.12 62.82-82.74 0.040-47.66-38.96-86.66-86.76-86.66h-9.2c-53.020 0-95.98-42.98-95.98-96 0-17.672 14.326-32 30.2-32h446.2c17.672 0 30.2 14.328 30.2 32 0 53.020-42.96 96-95.98 96h-9.288c-47.72 0-86.72 39-86.72 86.7 0 38.62 25.42 73.14 62.82 82.74 173.92 44.68 300.2 123.1 375 234.8 110.948 157.36 73.348 320.2 71.748 327zM154.82 520.4c-55.88 82.4-60.8 168.2-58.060 215.6h160.78c10.718-119.24 40.7-262.2 115.34-378.2-98.080 39-171.080 93.4-218.060 162.6zM997.2 520.4c-46.88-69.2-119.88-123.5-218-162.44 74.6 115.84 104.6 258.84 115.2 378.040h160.78c1.020-47.4-2.18-133.4-57.98-215.6z" />
<glyph unicode="&#xe906;" glyph-name="chess-pawn-solid" data-tags="Pawn Piece" horiz-adv-x="640" d="M210.2 512h-50.2c-17.76 0-32-14.2-32-32v-64c0-17.75 14.25-30.2 32-30.2l32-1.8v-11c0-88-8.24-173.2-48-245h352c-39.8 71.8-48 157-48 245v11h32c17.75 0 32 14.25 32 30.2v64c0 19.6-14.2 33.8-32 33.8h-50.24c58.84 36.8 98.24 101.6 98.24 176 0 115-93 208-209.8 208s-206.2-93-206.2-208c0-74.4 39.48-139.2 98.2-176zM544 64h-449.8c-51.22 0-94.2-43-94.2-94.2 0-19.4 14.326-33.8 32-33.8h576c17.674 0 32 14.326 32 32 0 53-43 96-96 96z" />
<glyph unicode="&#xe907;" glyph-name="chess-knight-solid" data-tags="Knight Piece" horiz-adv-x="768" d="M37.999 415l81.24-36c8.32-3.6 17.26-5.6 26.2-5.6 8 0 16.002 1.509 23.56 4.578l25.5 10.25c18.25 7.25 32 22.24 37.5 41l18.4 61.172c3.6 13.8 12.6 25.2 25.4 31.4l44.2 22.2v-100.76c0-36.24-20.8-69.44-53.2-85.64l-114.3-57.4c-54.26-27.2-88.5-82.4-88.5-143.2v-29h639.802l-0.083 384.001c0 210.201-171.661 384.001-383.601 384.001h-296.118c-13.25 0-24-10.76-24-24 0-5.25 1.25-10.5 3.5-15.25l28.5-56.75-18-18c-9-9-14-21.24-14-34v-274.401c0-25.4 15-48.4 38-58.6zM103.999 704.001c22 0 40-18 40-40s-18-40-40-40-40 18-40 40 18 40 40 40zM672.001 63.999h-577.802c-51.22 0-94.2-43-94.2-94.2 0-19.4 14.326-33.8 32-33.8h704.002c17.674 0 32 14.326 32 32 0 53-43 96-96 96z" />
<glyph unicode="&#xe908;" glyph-name="chess-bishop-solid" data-tags="Bishop Piece" horiz-adv-x="640" d="M544 64h-448c-53.020 0-96-43-96-96 0-17.6 14.328-32 32-32h576c17.672 0 32 14.328 32 32 0 53-43 96-96 96zM16 384.2c0-103.26 44.24-147.76 112-169.26v-86.94h384v87c67.76 21.5 112 66 112 169.26 0 61.24-21.5 134.26-53.5 205l-200.5-200.46c-3.13-3.13-7.216-4.698-11.302-4.698-4.072 0-8.142 1.557-11.26 4.678l-22.7 22.54c-3.12 3.12-4.678 7.232-4.678 11.344 0 4.126 1.568 8.256 4.698 11.386l215.8 215.8c-41.558 75.55-92.958 144.15-141.758 185.15 28 6.74 49.2 31 49.2 61 0 35.24-28.76 64-64 64h-128c-35.2 0-64-28.76-64-64 0-30 21.24-54.24 49.24-61-105.74-88.6-225.24-304-225.24-450.8z" />
<glyph unicode="&#xe909;" glyph-name="chess-rook-solid" data-tags="Rook Piece" horiz-adv-x="768" d="M736 896h-112c-17.75 0-32-14.25-32-32v-96h-96v96c0 17.75-14.25 32-32 32h-160c-17.75 0-32-14.25-32-32v-96h-95.76v96c0 17.75-14.5 32-32 32h-112.24c-17.75 0-32-14.24-32-32v-352l128-64c0-96.76-3-190-26.5-320h565c-23.5 130-26.5 224.4-26.5 320l128 64v352c0 17.76-14.2 32-32 32zM448 320h-128v128c0 35.24 28.76 64 64 64s64-28.76 64-64v-128zM672 64h-577.8c-51.22 0-94.2-43-94.2-94.2 0-19.4 14.326-33.8 32-33.8h704c17.674 0 32 14.326 32 32 0 53-43 96-96 96z" />
<glyph unicode="&#xe90a;" glyph-name="chess-queen-solid" data-tags="Queen Piece" d="M512 736c61.76 0 112 50.24 112 112s-50.2 112-112 112-113.8-50.24-113.8-112 52-112 113.8-112zM798.2 64h-576c-53.020 0-96-42.98-96-94.2 1.76-19.4 16.1-33.8 33.76-33.8h704c17.674 0 32 14.326 32 32-1.76 53-42.96 96-97.76 96zM1022.2 565.2c0 10.356-5.018 20.4-14.192 26.52l-55.208 31.88c-5.368 3.578-11.204 5.24-16.994 5.24-34.44 0-34.78-52.74-103.84-52.74-58.7 0-95.94 50.76-95.94 101.26-1.826 14.64-13.826 26.64-26.826 26.64h-77.5c-12 0-23.26-8-25.76-19.75-9.54-44.45-48.54-76.25-95.74-76.25-45.5 0-84.5 31.76-94 76.24-0.8 11.76-11.8 19.76-24 19.76h-77.5c-16.5 0-28.5-12-28.5-26.8 0-36.9-27.46-101.24-95.9-101.24-69.16 0-69.74 52.78-103.74 52.78-5.818 0-11.61-1.667-16.864-5.29l-57.26-32c-7.418-5.85-12.436-16.050-12.436-26.25 0-5 1.117-9.8 3.44-14.4l204.96-422.8h607l205 422.8c2.4 4.6 1.8 9.6 1.8 14.4z" />
<glyph unicode="&#xe90b;" glyph-name="chess-king-solid" data-tags="King Piece" horiz-adv-x="896" d="M734.2 64h-574.26c-53.020 0-96.020-42.98-96.020-94.2 0-19.4 14.34-33.8 32-33.8h704c17.676 0 32 14.326 32 32 0.080 53-42.92 96-97.72 96zM832.2 640h-320v96h32.020c35.2 0 63.96 28.8 63.96 64-1.98 35.2-28.98 64-64.18 64h-32.020v32c0.020 35.2-28.78 64-65.78 64-33.4 0-64-28.8-64-64.020v-31.98h-32c-35.2 0-64.020-28.8-64.020-64 0.020-35.2 30.62-64 64.020-64h32.020v-96h-320c-27.54 0-62.22-23-62.22-64 0-6.4 0.947-12.8 2.874-19l146.046-429h598.2l146.040 429c1.84 6.2 2.84 12.6 2.84 19 0 40.8-35.8 64-63.8 64z" />
<glyph unicode="&#xe90c;" glyph-name="chess-board-solid" data-tags="Chessboard" horiz-adv-x="896" d="M384 512h-128v-128h128v128zM768.001 896.002h-640.002c-70.7 0-128-57.3-128-128v-640.002c0-70.7 57.3-128 128-128h640.002c70.7 0 128 57.3 128 128v640.002c0 70.7-57.4 128-128 128zM768.001 640.001h-128v-128h128v-128h-128v-128h128v-128h-128v128h-128v-128h-128v128h-128v-128h-128v128h128v128h-128v128h128v128h-128v128h128v-128h128v128h128v-128h128v128h128v-128zM384 384v-128h128v128h-128zM512 512v128h-128v-128h128zM512 384h128v128h-128v-128z" />
<glyph unicode="&#xe90d;" glyph-name="graduation-cap-solid" data-tags="Graduation Cap" horiz-adv-x="1280" d="M1246.2 686.2l-565.4 202.4c-27.46 9.82-57.4 9.82-84.86 0l-563.84-202.4c-19.224-7-32.1-25.4-32.1-46.2s12.876-39.3 32.1-46.18l120.040-43.020c-23.78-31.6-40.52-68.32-49.1-107.9-22.94-9.7-39.040-32.5-39.040-58.9 0-19.906 9.628-36.98 23.88-48.72l-49.66-298c-3.26-19.48 11.78-37.28 31.56-37.28h116.44c19.774 0 34.82 17.758 31.56 37.26l-49.66 298c14.26 11.74 23.88 30.54 23.88 48.74 0 20.58-10.348 38.060-25.44 49.78 8.504 35.52 25.76 67.64 49.88 94.060l381.2-136.46c27.46-9.82 57.4-9.82 84.86 0l565.4 202.4c19.3 7.020 32.1 25.42 32.1 46.22s-12.8 39.2-33.8 46.2zM702.2 331.2c-18.8-7.4-40.4-11.2-62.2-11.2-21.84 0-43.38 3.734-64 11.11l-290.4 103.89-29.6-285.6c0-82.6 170.2-149.4 384-149.4 210.2 0 384 66.8 384 149.34l-29.56 285.8-292.24-103.94z" />
<glyph unicode="&#xe90e;" glyph-name="fide-logo" data-tags="Fide Logo" horiz-adv-x="1459" d="M564.95 774.189c-3.149-4.196-6.297-7.343-9.447-10.489-90.27 18.879-196.285 51.393-275.009 89.151 1.050 0.525 1.836 1.049 2.624 1.573v0c0.787 0.525 1.574 1.049 2.624 1.573 5.249 3.147 10.497 6.293 15.746 8.391 1.574 0.525 2.886 1.311 4.199 2.097s2.624 1.573 4.199 2.097l18.894 9.44c1.050 0.525 2.361 1.049 3.674 1.573s2.624 1.049 3.674 1.573c4.567 2.281 9.133 4.012 13.3 5.59 1.58 0.599 3.103 1.176 4.546 1.751 4.051 0.81 7.478 2.244 11.244 3.822 1.112 0.466 2.254 0.944 3.451 1.423 4.199 2.097 8.397 4.196 12.596 5.244 74.526 28.319 153.25 46.149 234.073 54.54l31.49 3.147c3.149 1.049 7.348 1.049 10.497 1.049 3.674 0 7.347 0.262 11.021 0.525s7.347 0.525 11.021 0.525c4.199 1.049 9.446 1.049 13.646 1.049h34.639c36.738 0 73.476-2.097 108.114-6.293 2.1-1.049 3.15-1.049 5.249-1.049 10.497-1.049 19.944-2.097 29.389-3.147 1.442 0 2.882-0.124 4.281-0.243 2.677-0.23 5.197-0.446 7.266 0.243 3.674-0.524 7.084-1.049 10.494-1.572h0.004c3.411-0.525 6.823-1.049 10.497-1.573l15.745-3.147c2.625-0.525 5.511-1.049 8.397-1.573s5.772-1.049 8.397-1.573c2.624-0.525 5.51-1.049 8.396-1.573s5.774-1.049 8.397-1.573c5.249-2.097 10.497-3.147 15.745-4.196 2.625-0.525 5.249-1.312 7.872-2.097s5.247-1.573 7.872-2.097c3.149-1.049 6.035-1.835 8.921-2.622s5.774-1.573 8.922-2.622l12.596-3.147c5.012-1.252 10.024-2.878 14.812-4.432 3.235-1.049 6.368-2.065 9.33-2.911 1.050-0.525 1.836-0.787 2.624-1.049s1.575-0.525 2.625-1.049c55.631-17.83 104.965-40.905 145.898-63.979 0.53-0.525 1.059-0.787 1.576-1.049 0.53-0.262 1.048-0.525 1.576-1.049s1.048-0.787 1.576-1.049c0.518-0.262 1.048-0.525 1.576-1.049-76.629-41.953-177.396-73.419-276.064-88.103-0.74 1.681-1.52 3.612-2.381 5.751-12.59 31.207-42.945 106.448-229.593 90.743l-29.389 70.272-30.44-10.489 7.348-71.322c0 0-57.731-24.123-76.624-36.71 1.050-7.341 4.199-19.928 6.297-28.318zM499.721 704.477c-26.654-27.74-58.234-60.606-68.076-75.029-179.49 27.269-285.505 57.686-335.889 75.517 1.050 1.573 2.099 2.884 3.149 4.196v0c1.050 1.311 2.099 2.621 3.149 4.195 1.050 1.050 2.099 2.36 3.149 3.671v0c1.050 1.312 2.099 2.623 3.149 3.671 2.099 2.098 4.199 4.459 6.298 6.818s4.2 4.72 6.298 6.818c1.050 2.098 3.149 4.196 5.247 6.294 2.099 2.096 4.461 4.195 6.822 6.293h0.001c2.361 2.098 4.723 4.196 6.822 6.294l6.299 6.293c2.623 2.096 5.245 4.456 7.868 6.814l0.004 0.004c2.625 2.36 5.249 4.719 7.872 6.818l4.2 4.196c23.092 19.928 47.234 36.71 70.326 51.393 0.525 0 0.787 0.262 1.050 0.525s0.525 0.525 1.051 0.525l9.446 6.293c38.837-17.83 148.001-65.029 288.655-92.298-6.69-7.864-20.904-22.658-36.89-39.294zM930.231 609.521c210.982 11.537 382.078 54.539 447.157 77.614-1.059 1.049-1.835 2.098-2.624 3.146-0.789 1.050-1.576 2.098-2.624 3.146-0.53 0.525-1.059 1.312-1.576 2.098-0.53 0.787-1.048 1.573-1.576 2.098l-15.743 18.879-1.048 1.050c-5.247 6.291-10.496 11.534-16.791 17.826v0.001l-0.012 0.002-17.837 17.83c-3.153 3.146-6.295 6.293-9.448 8.39-1.576 1.57-3.412 3.143-5.236 4.713v0h-0.012v0.011h-0.012v0.001c-1.835 1.571-3.671 3.143-5.236 4.714-1.576 1.573-3.153 2.884-4.73 4.195-1.564 1.312-3.142 2.623-4.718 4.196v0.002c-6.295 5.244-12.602 10.488-19.944 15.73l-1.048 1.049c-14.696 11.538-29.392 22.027-44.089 30.417-36.734-19.929-135.405-66.078-297.052-90.201 16.794-40.906 4.199-126.91 4.199-126.91zM667.817 578.055c0 0-87.121-43.003-125.958-110.129h-541.622c0 5.244 0 9.44 1.050 12.586v1.049c0.525 4.196 1.050 8.129 1.574 12.062s1.050 7.866 1.574 12.062v1.050c0.459 2.751 1.119 5.702 1.803 8.767 0.882 3.946 1.804 8.077 2.395 12.21 1.050 1.049 1.050 2.096 1.050 3.146 1.050 6.293 2.099 12.586 4.199 18.879v2.098c1.050 3.146 2.099 6.555 3.149 9.964v0.001c1.050 3.409 2.099 6.818 3.148 9.963 10.497 32.515 26.241 66.078 50.384 100.689 0.525 0.525 0.787 1.050 1.050 1.573s0.525 1.050 1.050 1.574c0.391 0.39 0.636 0.926 0.899 1.5 0.442 0.966 0.933 2.038 2.25 2.696 91.32-29.367 239.321-62.931 360.032-78.663 54.303-87.806 106.751-44.76 134.626-21.882 1.759 1.444 3.419 2.806 4.977 4.053 34.639-2.098 92.37-5.244 92.37-5.244zM901.89 467.927h557.367c0 4.195 0 9.439-1.048 13.635-2.106 32.513-9.448 66.078-22.050 99.641v1.049c-2.094 6.293-5.247 13.635-8.389 19.929-0.53 0.524-0.789 1.311-1.048 2.096-0.271 0.787-0.53 1.573-1.059 2.098-1.083 2.167-2.035 4.21-2.965 6.17v0.014l-0.012 0.011v0.015c-1.753 3.72-3.353 7.146-5.412 10.572l-3.153 6.293c-1.507 3.776-3.565 7.009-5.777 10.481v0.001c-0.859 1.35-1.741 2.734-2.624 4.202-1.048 1.574-1.835 3.148-2.624 4.72v0.001c-0.789 1.573-1.576 3.145-2.624 4.718-1.048 1.049-1.048 2.098-1.048 2.098-1.659-0.479-3.518-1.025-5.601-1.632-47.971-14.023-208.216-60.859-467.792-74.934-2.792-13.951-6.494-28.659-10.184-43.32-6.020-23.915-12.006-47.701-13.958-67.857zM0.236 439.607h524.828c-11.546-22.025-20.993-72.37-18.893-97.542-264.857-23.524-391.285-64.453-439.258-79.984-3.36-1.088-6.335-2.051-8.946-2.874-1.050 0-1.050 1.049-1.050 1.049 0 1.050-1.050 3.146-2.099 4.196-1.574 2.621-3.149 5.506-4.723 8.39l-0.001 0.001c-1.574 2.884-3.148 5.768-4.722 8.389l-3.149 6.294c-3.149 5.244-6.298 11.537-9.447 17.829-0.525 0.525-0.788 1.050-1.050 1.573s-0.525 1.050-1.050 1.574c-1.574 3.67-2.886 7.341-4.199 11.012s-2.624 7.343-4.199 11.013v1.049c-0.895 3.129-1.979 6.257-3.093 9.468-1.5 4.322-3.050 8.792-4.255 13.607v1.049c-2.099 6.294-4.199 13.636-6.298 20.977 0 0.525-0.262 1.312-0.525 2.098s-0.525 1.573-0.525 2.098c-0.525 2.621-1.050 5.506-1.574 8.39s-1.050 5.769-1.574 8.39c-1.050 3.148-2.099 7.343-2.099 10.489 0 2.098-0.262 4.196-0.525 6.294-0.262 2.096-0.525 4.195-0.525 6.293 0 2.623-0.262 4.981-0.525 7.343-0.262 2.359-0.525 4.719-0.525 7.343v4.195zM898.742 439.607c-4.2-45.1 15.745-83.908 28.34-99.641 251.22-23.094 417.784-74.064 461.931-87.575l5.165-1.576c12.602 18.879 26.238 44.051 38.84 73.418 0 1.050 0 1.050 1.048 2.098v0.002c2.094 5.243 4.201 10.488 5.247 15.73 0.589 1.178 0.847 2.355 1.153 3.72 0.224 1.065 0.483 2.242 0.942 3.623 1.059 4.196 2.106 8.39 4.201 12.586 0.53 2.096 1.048 3.933 1.576 5.768s1.048 3.671 1.576 5.769c0.518 1.573 0.789 3.146 1.048 4.719s0.53 3.148 1.048 4.72c2.106 7.341 3.153 14.683 4.201 22.025v2.098c1.048 7.343 2.106 15.733 2.106 23.075v10.488c-17.849-1.049-537.43-1.049-558.422-1.049zM934.431 257.108c19.943 22.025 9.446 53.491 9.446 53.491 184.645-13.667 369.291-64.585 425.299-80.030 4.166-1.15 7.625-2.102 10.308-2.829-0.518-1.050-1.306-1.835-2.094-2.623-0.789-0.786-1.576-1.573-2.106-2.621-1.048-3.146-3.142-5.244-5.247-7.343v0c-2.094-2.621-4.201-4.981-6.295-7.343-2.094-2.359-4.201-4.719-6.295-7.341l-6.307-6.294c-2.094-2.096-3.93-4.194-5.765-6.291v-0.004c-1.835-2.096-3.671-4.194-5.777-6.291l-18.897-18.879c-2.094-1.573-3.93-3.409-5.765-5.244s-3.671-3.671-5.777-5.244v0c-3.153-3.146-6.295-6.293-10.496-9.439-1.576-1.573-3.153-2.885-4.718-4.196-1.576-1.311-3.153-2.621-4.73-4.195-5.247-5.244-10.496-9.44-16.791-13.636l-3.153-3.146c-14.696-11.537-30.439-22.025-46.183-31.466-1.048-0.524-1.835-1.049-2.624-1.573s-1.576-1.049-2.624-1.573l-6.295-3.146c-5.718 2.196-12.425 4.877-20.073 7.932v0.002c-65.378 26.125-199.486 79.718-371.452 93.803 18.238 25.514 78.463 33.612 106.345 37.362 4.213 0.566 7.687 1.033 10.168 1.447v28.319h-415.663v-28.319c0 0 88.17-1.049 110.213-36.71-238.273-19.928-362.132-96.493-377.875-106.981-3.15 1.049-6.299 3.146-9.447 5.244-1.573 1.048-2.884 1.834-4.196 2.62l-0.006 0.004c-1.311 0.786-2.623 1.571-4.196 2.62l-18.893 12.585c-1.050 0.525-1.836 1.050-2.625 1.574-0.787 0.524-1.574 1.049-2.624 1.573l-0.001 0.001c-6.297 4.195-12.595 8.389-18.892 13.634-2.1 2.098-3.15 3.146-5.249 4.195-3.148 2.621-6.034 4.981-8.92 7.341l-0.001 0.001c-2.887 2.36-5.774 4.719-8.922 7.343-1.050 0.525-1.836 1.311-2.624 2.098s-1.575 1.573-2.625 2.098c-5.247 4.195-11.546 9.439-16.794 14.683-0.732 1.463-1.974 2.415-3.015 3.213-0.452 0.347-0.866 0.665-1.184 0.983-6.299 5.244-12.596 11.537-17.845 16.782l-2.099 2.098c-6.298 6.293-12.596 12.586-17.844 18.879-4.366 4.363-8.227 9.229-11.934 13.9l-0.004 0.005c-1.638 2.066-3.248 4.094-4.856 6.022-2.099 2.098-3.149 3.148-4.199 5.245l-9.447 12.585c28.341 10.489 187.888 62.931 434.558 80.762 2.099-27.269 10.497-57.686 10.497-57.686h414.614zM809.521 158.517c-2.099-10.489-1.050-31.466 18.893-45.1 11.546-8.391 25.192-12.586 41.986-14.684l0.004-0.001c10.496-1.049 20.991-2.096 34.636-2.096 7.463 0 13.267 0.207 19.716 0.438h0.005c8.063 0.287 17.134 0.612 31.713 0.612v-117.471c38.837 8.39 78.723 20.977 117.562 34.612 0 0 1.050 0 1.050 1.050 4.723 2.096 9.709 3.933 14.694 5.768s9.972 3.671 14.696 5.769h1.050c19.944 8.39 38.837 16.782 55.632 26.221 0.563 0.281 1.050 0.563 1.502 0.823 1.236 0.713 2.209 1.276 3.747 1.276 1.574 0.524 3.149 1.311 4.723 2.096s3.15 1.573 4.724 2.098c-4.199 2.098-159.547 79.712-366.329 98.592zM283.119 57.304c-1.574 0.786-3.149 1.573-4.723 2.621 62.98 43.003 189.987 91.25 363.181 102.787 1.050-7.341 3.149-35.66-18.894-50.345-12.596-8.39-37.788-12.586-62.98-13.635-34.639-2.098-70.327 0-70.327 0v-119.568c-1.381 0.46-2.559 0.718-3.625 0.952-1.365 0.299-2.543 0.557-3.722 1.146-4.2 1.049-8.397 2.096-11.546 3.146-5.346 1.188-10.357 2.71-15.221 4.189l-0.002 0.001c-3.73 1.133-7.374 2.241-11.018 3.152-0.526 0-1.051 0.261-1.575 0.524s-1.050 0.525-1.574 0.525c-54.581 16.782-106.015 36.71-149.051 59.785-0.803 0.4-1.451 0.647-2.005 0.859-0.897 0.343-1.544 0.59-2.193 1.238-1.575 1.050-3.15 1.835-4.724 2.623zM538.708 64.123h76.624v-23.075h-48.284v-28.319h45.135v-23.074h-45.135v-50.345h-28.34v124.813zM665.716-61.739v125.862h-28.34v-125.862h28.34zM690.908 63.074c10.497 2.098 24.142 2.098 38.837 2.098 24.142 0 39.888-4.195 51.434-13.635 12.596-9.44 20.992-25.173 20.992-47.198 0-24.123-8.396-40.905-20.992-51.393-13.647-11.538-33.589-16.783-57.731-16.783-14.695 0-25.192 1.050-32.539 2.098v124.813zM719.248-40.762c2.1-1.049 6.299-1.049 9.447-1.049 26.241 0 43.036 13.635 43.036 44.051 0 26.221-14.695 39.856-39.888 39.856-3.991 0-7.14-0.421-9.445-0.73h-0.001c-1.331-0.179-2.381-0.319-3.15-0.319v-81.809zM849.405-8.248h45.135v23.075h-46.185v26.221h49.334v23.075h-77.674v-125.862h80.824v23.075h-51.434v30.416z" />
<glyph unicode="&#xe90f;" glyph-name="fide-cup" data-tags="Fide Cup" horiz-adv-x="853" d="M746.231 959.804c28.433 0 55.161-11.032 75.349-31.049 19.49-19.256 31.567-45.974 31.59-75.515v-0.345c0-72.904-19.647-141.571-56.838-198.495-36.964-56.639-89.196-96.788-147.059-113.024-12.553-4.183-21.444-15.827-21.444-29.547 0-17.163 13.914-31.078 31.078-31.078 2.657 0 5.236 0.334 7.698 0.961l-0.215-0.046c2.282 0.637 4.902 1.003 7.608 1.003 16.222 0 29.372-13.15 29.372-29.372 0-13.206-8.715-24.376-20.707-28.073l-0.208-0.055c-7.324-2.145-15.738-3.38-24.44-3.38-36.7 0-68.273 21.955-82.299 53.448l-0.228 0.573c-17.362-15.353-37.408-28.217-59.246-37.734l-1.458-0.567v-31.277c11.496-4.149 19.563-14.965 19.563-27.665s-8.069-23.516-19.36-27.601l-0.204-0.065v-36.224c45.562-26.341 77.941-71.156 87.027-123.938l0.15-1.056h98.152c16.207 0 29.372-13.136 29.372-29.372v-145.807h9.781c16.23 0 29.386-13.157 29.386-29.386s-13.157-29.386-29.386-29.386h-625.196c-16.23 0-29.386 13.157-29.386 29.386s13.157 29.386 29.386 29.386h9.781v145.807c0 16.207 13.165 29.372 29.372 29.372h98.152c9.24 53.836 41.618 98.65 86.324 124.537l0.854 0.456v36.224c-11.496 4.149-19.563 14.965-19.563 27.665s8.069 23.516 19.36 27.601l0.204 0.065v31.277c-23.306 10.049-43.355 22.916-60.94 38.503l0.234-0.204c-14.265-32.063-45.84-54.014-82.543-54.014-8.696 0-17.104 1.233-25.059 3.532l0.636-0.157c-12.634 3.47-21.764 14.853-21.764 28.369 0 16.222 13.15 29.372 29.372 29.372 3.016 0 5.926-0.455 8.665-1.299l-0.208 0.055c2.123-0.518 4.561-0.815 7.068-0.815 17.163 0 31.078 13.914 31.078 31.078 0 13.608-8.747 25.173-20.924 29.382l-0.218 0.066c-57.749 16.264-109.953 56.412-146.916 113.052-37.248 56.867-56.867 125.563-56.867 198.466v0.228c0 0.003 0 0.006 0 0.010 0 29.582 12.081 56.34 31.58 75.613l0.010 0.010c19.222 19.186 45.756 31.050 75.062 31.050 0.101 0 0.201 0 0.302 0h0.382c40.785-0.197 76.157-23.177 94.062-56.857l0.281-0.579v28.064c0 16.207 13.165 29.372 29.401 29.372h390.847c16.207 0 29.401-13.165 29.401-29.372v-28.035c18.192 34.248 53.563 57.216 94.316 57.407h0.424zM58.907 852.894c0-60.592 16.776-119.705 47.285-166.393 26.017-39.864 60.962-69.178 99.518-83.879-2.442 12.467-3.839 26.803-3.839 41.465 0 0.077 0 0.154 0 0.23v-0.012 184.477c-4.834-3.498-10.776-5.573-17.173-5.573h-0.114c-16.185 0.048-29.287 13.18-29.287 29.372 0 0.040 0 0.080 0 0.12v-0.006c0 0.018 0 0.039 0 0.060 0 26.649-21.603 48.251-48.251 48.251-13.226 0-25.209-5.322-33.926-13.941l0.004 0.004c-9.099-9.099-14.16-21.183-14.217-34.035v-0.142zM182.594 14.502h488.147v116.435h-488.147v-116.435zM747.141 686.501c30.48 46.688 47.285 105.772 47.285 166.393v0.228c-0.033 13.286-5.476 25.294-14.24 33.945l-0.005 0.005c-8.662 8.644-20.618 13.99-33.823 13.99-0.045 0-0.089 0-0.134 0h-0.164c-26.563-0.113-48.053-21.673-48.053-48.251 0-0.040 0-0.080 0-0.12v0.006c0-0.034 0-0.074 0-0.114 0-16.182-13.086-29.307-29.252-29.372h-0.12c-6.398 0-12.34 2.075-17.173 5.573v-184.477c0-14.132-1.307-28.064-3.839-41.655 38.584 14.7 73.501 44.015 99.518 83.879zM426.695 809.050h-39.181c-16.222 0-29.372-13.15-29.372-29.372s13.15-29.372 29.372-29.372v0h9.838v-154.025c0-16.222 13.15-29.372 29.372-29.372s29.372 13.15 29.372 29.372v183.397c0 16.207-13.165 29.372-29.401 29.372z" />
<glyph unicode="&#xe910;" glyph-name="fide-blitz" data-tags="Fide Chess Blitz" horiz-adv-x="608" d="M575.331 598.374c-3.187 6.374-8.064 9.562-14.438 9.562h-188.813l187.126 296.064c3.187 4.875 3.187 11.25 0 15.938-3.19 4.687-7.875 8.062-14.253 8.062h-256.124c-6.375 0-11.25-3.188-14.437-8.062l-240-480.002c-3.188-4.874-3.188-11.248 0-15.936s9.563-8.064 14.437-8.064h164.812l-179.062-427.123c-3.188-6.374 0-14.438 6.375-19.126 1.687-1.686 4.875-1.686 8.062-1.686 4.875 0 9.563 1.686 12.75 4.874l512.063 608.064c2.998 4.688 4.688 11.062 1.501 17.437zM104.892 75.251l147.188 351.936c1.688 4.877 1.688 9.562-1.687 14.438-3.188 3.187-8.063 6.374-12.75 6.374h-163.125l224.063 447.938h217.689l-189.002-295.874c-3.187-4.877-3.187-11.251 0-15.939s8.064-8.061 14.438-8.061h185.626zM288.812 944c-11.708 0-22.284-6.858-27.812-15.313l-0.5-0.75-240.438-480.875 0.938 1.625c-6.686-10.222-6.792-23.423 0.187-33.687 6.757-9.937 15.363-15.062 27.625-15.062h140.75l-169.312-403.938c-7.234-14.467-0.348-29.363 10.313-37.938 8.247-7.375 15.404-6.062 18.437-6.062 8.565 0 17.324 2.825 24.062 9.562l0.5 0.5 513.75 610.25c5.076 7.936 8.419 20.974 2.313 33.187-5.153 10.306-17.042 18.438-28.75 18.438h-159.75l171.5 271.312c6.683 10.222 6.792 23.422-0.187 33.687-5.28 7.757-15.478 15.063-27.5 15.063zM288.812 912h256.125c0.042 0 0.029-0.066 0.064-0.062h-256.252c0.055-0.004-0.009 0.062 0.062 0.062zM288.625 911.875l-239.938-479.813c0.231 0.061-0.153 0.064-0.25 0.189l239.5 478.999c0.381 0.68 0.332 0.695 0.687 0.625zM528.375 885.125l-185.25-293.063h-1.437c-0.224 0-0.301 0.314-0.375 0.314zM308.438 879.938h178.625l-173.187-271.125c-6.68-10.221-6.791-23.423 0.188-33.688 5.448-8.013 15.607-15.062 27.625-15.062h151.25l-333.125-394.938 107.25 256.375 0.125 0.437c2.723 7.869 2.479 19.993-3.625 28.812l-0.813 1.188-1.062 1c-5.184 5.184-12.122 11.063-24.063 11.063h-137.187zM560.938 591.125c0.138-0.262-0.099-0.669-0.375-1.062l-510.25-605.875c0.052 0.058-0.305-0.038-0.375-0.064l40.688 97 26.5-16.187zM48.75 432l187.938-0.064h-187.875c0.139 0-0.163 0.054-0.062 0.064zM49.625-16.625c-0.016 0.006 0.077-0.006 0.062 0-0.539 0.218 0.55-0.853 1.25-1.125l-0.5 0.314c-1.371 1.008-0.427 1.395-1.562-0.875l0.25 0.437 0.5 1.188z" />
<glyph unicode="&#xe911;" glyph-name="fide-rapid" data-tags="Fide Chess Rapid" d="M0.002 448c0 282.338 229.663 512 512.001 512s512-229.662 512-512-229.663-512-512-512c-282.339 0-512.001 229.663-512.001 512zM109.566 448c0-221.235 180.148-402.435 402.437-402.435 222.287 0 402.435 181.2 402.435 402.435s-181.204 402.436-402.435 402.436c-221.236 0-402.437-181.202-402.437-402.436zM548.874 463.79h229.663c23.177 0 42.141-18.961 42.141-42.141 0-23.177-18.964-42.138-42.141-42.138h-271.8c-23.177 0-42.141 18.961-42.141 42.138v319.211c0 23.177 18.964 42.14 42.141 42.14s42.138-18.963 42.138-42.14v-277.070z" />
<glyph unicode="&#xe912;" glyph-name="fide-standard" data-tags="Fide Chess Standard" horiz-adv-x="1058" d="M30.377 960v-1024h1007.525v1024h-1007.525zM114.337 874.667h377.821v-384h-377.821v384zM953.941 21.333h-377.822v384h377.822v-384z" />
<glyph unicode="&#xe913;" glyph-name="fsi-category-nc" data-tags="Category NC Non Classificato" horiz-adv-x="896" d="M100.473 643.707c-44.165-2.945-77.657-5.704-100.475-8.28 26.132-11.41 43.429-26.133 51.895-44.166 5.521-11.777 8.28-29.994 8.28-54.654l-3.864-67.352v-30.915c0-68.824-3.865-117.038-11.593-144.642-2.209-7.361-6.992-13.619-14.353-18.772-11.041-7.729-16.931-11.96-17.667-12.696 9.57-2.209 23.555-3.311 41.957-3.311 13.617 0 30.548 2.023 50.79 6.071 27.603 5.889 41.589 8.834 41.957 8.834-13.25 2.209-23.002 3.311-29.259 3.311-9.57 0-18.955 2.577-28.156 7.73-2.945 1.84-5.153 4.6-6.626 8.28-0.736 1.84-1.655 6.073-2.759 12.698-3.68 34.228-5.521 58.701-5.521 73.423-2.209 71.033-2.024 130.289 0.552 177.766 23.187-23.187 63.119-63.855 119.799-122.007 36.804-37.909 88.146-89.252 154.027-154.028 17.666-17.298 27.053-25.947 28.156-25.947 1.472 0 2.575 0.369 3.311 1.105 2.209 33.86 4.417 67.721 6.626 101.582 4.049 65.88 6.073 103.42 6.073 112.622v25.947c0 4.785 3.863 46.925 11.592 126.423 4.416 2.576 13.434 5.338 27.052 8.282 11.777 2.945 19.323 5.704 22.635 8.28l-69.561 3.313c-7.729 0-21.347-3.314-40.853-9.939-17.298-5.889-27.234-9.751-29.812-11.592 4.416 0 11.225 0.184 20.427 0.552l13.801 1.103c4.416 0 6.81-1.104 7.177-3.311 2.576-25.763 4.049-45.086 4.416-57.967 2.209-39.381 4.417-79.864 6.626-121.454l2.759-85.020c0-2.945-0.55-5.153-1.655-6.626-71.033 69.928-117.408 116.12-139.123 138.571-56.678 59.991-99.556 112.252-128.631 156.786zM744.184 643.155c-33.124 0-65.88-7.359-98.268-22.081-36.436-16.562-64.777-39.565-85.020-69.009-15.458-22.083-23.186-55.391-23.186-99.924 0-52.262 17.113-98.083 51.342-137.464 36.804-41.589 82.44-62.383 136.911-62.383 1.104 0 5.522 0.184 13.251 0.552s11.96 0.552 12.696 0.552c15.458 0 46.007 8.465 91.644 25.394 22.451 8.097 34.963 14.169 37.539 18.217-1.84 2.576-3.865 3.864-6.073 3.864l-24.291-8.832c-16.194-5.889-34.227-8.832-54.101-8.832-47.846 0-92.381 19.323-133.602 57.967-42.694 39.749-66.616 86.306-71.768 139.673 0 9.57-0.184 16.747-0.552 21.531s-0.552 6.625-0.552 5.521c0 4.785 0.737 11.593 2.21 20.427 1.84 8.833 3.681 13.986 5.521 15.458 4.049 28.339 19.874 49.685 47.478 64.038 20.978 11.041 44.901 16.562 71.768 16.562 27.972 0 55.759-6.071 83.362-18.217 34.228-15.458 51.342-34.965 51.342-58.519 0-3.68-0.369-7.361-1.105-11.042 0.368 0 0.921 0.184 1.657 0.552 1.104 0.368 1.839 0.552 2.208 0.552 9.57 34.228 23.371 60.91 41.405 80.049v4.418l-93.3 18.217c-39.381 1.84-58.886 2.759-58.517 2.759z" />
<glyph unicode="&#xe914;" glyph-name="lichess-ultrabullet" data-tags="Lichess Ultrabullet" horiz-adv-x="1066" d="M618 796q12-4 30-12t70-32q52-26 104-58 50-32 112-88 64-54 112-116-78-98-184-174-108-78-174-104l-70-28v80l-354-4 94 136-336 94 336 94-94 136 354-4v80zM686 680v-50l-252 2 58-84-252-58 252-58-58-84 252 2v-50q4 2 15 7t41 21 59 36 66 54 67 72q-46 62-109 109t-101 63zM624 588q138 0 218-98-44-56-109-80t-107-20l-42 4q-10 2-18 31t-8 65 8 65 18 31zM622 568h-18l-8-36h48t48-2 57-9 57-19q-76 66-184 66z" />
<glyph unicode="&#xe915;" glyph-name="lichess-bullet" data-tags="Lichess Bullet" horiz-adv-x="1064" d="M418 702q16 2 48 2 276-2 472-176-182 108-478 108-34 0-56-2 10 58 14 68zM948 522q-200 184-486 184-44 0-46-2t-16-72q24 2 60 2 304 0 488-114v2zM300 492q0 98 21 177t47 83q42 6 104 6 48 0 96-5t112-23 123-45 123-77 116-116q-64-82-144-138t-161-82-144-36-123-10l-102 6q-26 4-47 83t-21 177zM110 694l170 36-42-74-148 8zM286 732q-16-2-80-15t-98-21q-12-18-20-34l150-8zM232 492q0-12 4-38l-214 26v24l214 26q-4-26-4-38zM20 506v-28l218-26q-4 28-4 41t4 39zM238 328l42-74-170 36-20 30zM286 252l-48 78-150-8 20-34zM472 760l-104-6q-28-4-49-84t-21-178 21-178 49-84q42-6 102-6 38 0 78 4t91 13 102 29 103 49 104 73 96 100q-64 82-144 139t-160 83-143 36-125 10zM284 254l-176 34-18 34 148 8zM236 532q-4-26-4-40l4-40-216 26v28zM284 730l-46-76-148 8 18 34zM472 760q62 0 125-11t143-37 160-82 144-138q-74-94-171-155t-182-82-160-28-119-1l-44 6q-12 2-25 24t-23 58-16 83-6 95q0 98 22 177t48 83zM466 704l-50-2-14-68q14 0 37 1t91-2 132-13 144-35 142-63q-200 182-482 182z" />
<glyph unicode="&#xe916;" glyph-name="lichess-blitz" data-tags="Lichess Blitz" horiz-adv-x="1044" d="M454 978q62-166-32-264-18-18-101-85t-123-121q-36-50-48-117t2-138 82-131 182-86q-106 54-115 180t97 226q-28-92 12-146t106-30q62 20 102-13t38-89q-4-82-70-112 98 16 168 75t98 127 28 140q0 56-23 106t-45 76-31 71 21 91q-128-12-116-170 4-48-35-75t-79-5q-30 18-31 50t27 58q42 42 56 103t-26 140-144 139z" />
<glyph unicode="&#xe917;" glyph-name="lichess-rapid" data-tags="Lichess Rapid" horiz-adv-x="1044" d="M726 118l-8 2h-48q-52 4-134 2-172-6-194 4l-6 2v12q0 18 14 30 38 32 224 36h20l-16 4q-88 18-122 78-30 54 10 98 24 24 78 24 28 0 36-2l14-2q0 4-2 8-22 38-84 42-70 6-100-54-10-26-10-58 0-28 2-40l4-18-22-36q-74-116-98-126-6-2-44-4-48 0-62 8-4 2-4 14 0 22 10 32 12 14 52 20 24 4 29 10t7 32q6 58 12 80 12 50-6 96-14 36-14 54-4 22 4 42l2 6-8 2q-46 6-56 10-54 12-60 44-16 64 50 150 40 52 92 70 42 10 88 0 2-2 3 0t5 8q14 32 80 78 76 50 144 50 30 0 36-18 4-16-11-28t-61-32q-24-10-24-12 4 2 10 4 84 28 130-4 22-16 12-34-10-10-58-22-68-22-104-42-24-12-52-28l-22-12 2-16q8-30 34-40 18-6 90-12 88-6 120-20 18-10 34-24 86-78 110-174 6-44 4-62v-12h12q34-6 46-36 6-12 6-26 0-10-4-26-14-28-42-34-34-10-76 20l-6 4-2-4q-2-4-3-20t1-26l6-24q6-20 2-32-2-4-20-14-6-2-26-3t-26 1zM290 618q20 10 19 33t-21 33q-14 8-28 0-16-8-18-22-2-12 0-22 4-16 19-23t29 1z" />
<glyph unicode="&#xe918;" glyph-name="lichess-classical" data-tags="Lichess Classical" horiz-adv-x="1064" d="M374 378h-116q10-136 96-226l76 132zM354 664q-86-90-96-226h116l56 94zM690 378l-56-94 76-132q86 90 96 226h-116zM580 256h-96l-84-144q62-40 132-40t132 40zM532 744q-70 0-132-40l84-144h96l84 144q-62 40-132 40zM710 664l-76-132 56-94h116q-10 136-96 226zM584 500h-104l-54-92 54-92h104l54 92zM926 716q-96 60-202 18 26-24 50-50 28-34 56-92h214q-38 76-118 124zM784 144q-8-8-10-12-42-50-98-82l80-114q58 104 28 208zM290 132q-2 4-10 12-30-104 28-208l80 114q-56 32-98 82zM138 716q-80-48-118-124h214q28 56 56 92 24 26 50 50-106 42-202-18zM532 960q-40 0-68-28t-28-68v-76q48 16 96 16t96-16v76q0 40-28 68t-68 28z" />
<glyph unicode="&#xe919;" glyph-name="fsi-logo" data-tags="Federazione Scacchistica Italiana ( FSI ) Logo" d="M472.828 639.452l0.687 105.256 8.373-0.055c3.775-21.935 9.009-38.53 15.528-49.438 6.52-11.081 16.607-20.235 30.275-27.622 13.489-7.213 28.605-10.871 44.812-10.975 18.882-0.123 33.869 4.58 44.8 14.482 11.108 9.901 16.525 21.629 16.614 35.343 0.049 7.482-1.857 15.145-5.905 22.832-4.225 7.867-10.591 15.034-19.273 21.674-5.852 4.492-21.812 14.213-48.080 29.169-26.26 14.951-44.705 26.831-55.869 35.629-10.985 8.802-19.291 18.472-25.102 29.019-5.629 10.718-8.397 22.319-8.313 35.141 0.143 21.903 8.639 40.906 25.838 56.644 17.024 15.739 38.442 23.618 64.62 23.447 16.384-0.107 33.639-4.138 51.754-12.267 8.343-3.795 14.384-5.801 17.768-5.823 4.097-0.027 7.312 1.203 9.819 3.501 2.513 2.303 4.501 7.096 6.145 14.032l8.196-0.053-0.693-106.145-8.196 0.053c-2.716 20.321-7.41 36.735-14.278 48.71-7.046 12.16-16.956 21.842-29.91 29.050-12.954 7.204-26.287 10.866-40.181 10.956-15.85 0.103-28.706-4.624-39.1-14.172-10.392-9.554-15.628-20.38-15.708-32.671-0.060-9.259 3.269-17.829 9.63-25.531 9.364-11.456 31.522-26.745 66.488-45.851 28.571-15.507 48.088-27.561 58.544-35.824 10.449-8.258 18.581-18.11 24.033-29.19 5.625-11.26 8.392-23.027 8.313-35.141-0.152-23.329-9.36-43.216-27.46-60.012-18.1-16.807-41.483-25.029-69.802-24.844-8.904 0.058-17.275 0.828-25.098 2.306-4.806 0.739-14.405 3.47-29.155 8.377-14.572 4.906-23.992 7.286-27.91 7.311-3.738 0.024-6.774-1.029-8.927-3.329-2.149-2.121-3.787-6.923-4.9-14.040zM169.4 648.56l0.055 8.364 10.862-0.071c12.645-0.083 21.933 3.416 27.681 10.86 3.769 4.787 5.628 16.534 5.748 34.881l1.295 198.397c0.101 15.499-0.902 25.833-2.83 30.83-1.578 3.751-4.584 6.978-9.2 9.679-6.565 3.783-13.498 5.608-20.8 5.656l-10.862 0.071 0.055 8.364 228.318-1.49 2.591-67.516-8.018 0.052c-3.824 14.454-8.38 24.987-13.502 31.61-5.122 6.802-11.501 11.654-19.141 14.73s-19.203 4.756-35.231 4.861l-67.681 0.442-0.788-120.75 55.931-0.365c12.823-0.084 22.275 2.702 28.19 8.368 6.093 5.479 9.903 16.673 11.971 33.587l8.373-0.055-0.679-104.012-8.373 0.055c-0.1 11.931-1.639 20.665-4.274 26.207-2.991 5.718-7.066 9.847-12.212 12.73s-12.971 4.183-23.12 4.25l-55.931 0.365-0.629-96.35c-0.101-15.499 0.724-25.835 2.652-30.837 1.578-3.751 4.587-6.978 9.554-9.859 6.566-3.606 13.501-5.43 20.801-5.478l11.039-0.072-0.055-8.364zM728.091 644.915l0.055 8.364 10.862-0.071c12.65-0.083 21.926 3.416 27.673 10.86 3.594 4.788 5.628 16.534 5.748 34.881l1.295 198.397c0.101 15.499-0.897 25.833-2.821 30.83-1.581 3.751-4.584 6.978-9.2 9.679-6.565 3.783-13.497 5.608-20.8 5.656l-10.862 0.071 0.055 8.364 131.613-0.859-0.055-8.364-11.218 0.073c-12.471 0.081-21.581-3.596-27.327-10.862-3.952-4.964-5.806-16.524-5.926-34.87l-1.295-198.397c-0.101-15.499 0.723-25.835 2.652-30.837 1.575-3.751 4.762-6.979 9.375-9.858 6.566-3.606 13.499-5.43 20.623-5.477l11.218-0.073-0.055-8.364zM683.253 572.654l-0.131-19.882-3.871-593.604-0.152-23.168 22.916 3.41c104.606 15.493 169.766 101.814 199.79 169.030 5.864 13.129 10.399 25.528 13.651 36.65 2.847 9.745 4.703 18.571 5.645 26.472l0.713-0.005 2.608 399.523-221.306 1.444zM386.365 574.593l-0.13-19.884-3.874-593.603-0.151-23.168 22.916 3.411c104.607 15.492 169.765 101.814 199.789 169.029v0c5.864 13.129 10.399 25.527 13.651 36.649v0c2.847 9.749 4.706 18.579 5.647 26.482l0.715-0.005 2.607 399.514-221.319 1.444zM406.376 554.318l200.883-1.311-2.343-359.239h-0.046l-0.065-10.066c-0.046-7.135-1.818-18.18-5.572-31.025v0c-2.965-10.143-7.196-21.739-12.709-34.085-28.17-63.065-89.222-143.057-184.017-157.262zM103.734 576.434l-0.129-19.882-3.875-593.602-0.152-23.168 22.918 3.41c104.605 15.493 169.753 101.814 199.775 169.027 5.862 13.123 10.412 25.52 13.662 36.65v0.005c2.847 9.745 4.703 18.572 5.645 26.472l0.702-0.005 2.608 399.518-221.306 1.446z" />
<glyph unicode="&#xe91a;" glyph-name="lichess-logo" data-tags="Lichess Logo" d="M796.6 959.92c-71.026-8.411-132.156-19.257-191.12-61.12-247.755 16.679-406.543-61.115-498.48-172.4-92.327-111.756-117.615-255.602-103.24-369.080 0-0.012 0-0.026 0-0.040s0-0.028 0-0.042v0.002c58.698-435.074 650.262-553.829 850-258.36 0.346 0.511 0.817 0.886 1.16 1.4 1.131 1.623 1.806 3.637 1.806 5.808 0 5.656-4.585 10.241-10.241 10.241-2.931 0-5.574-1.231-7.441-3.205l-0.004-0.005c-149.009-154.053-385.847-175.244-567.24-61.6-181.183 113.512-270.407 347.824-166.84 543.92 104.406 197.647 285.356 261.026 487.68 223.32 0.558-0.108 1.199-0.169 1.855-0.169 1.911 0 3.701 0.524 5.232 1.435l-0.047-0.026c44.694 26.081 93.689 53.492 135.64 59.4l-28.36-81.48c-0.358-1-0.565-2.153-0.565-3.355 0-1.936 0.537-3.747 1.471-5.291l-0.026 0.046 259-434.040c-4.96-52.889-29.528-80.527-53.76-95.72-21.898-13.73-38.165-15.079-42.6-15.64-13.241 29.464-35.92 60.315-96.56 118.8-17.743 17.118-48.339 37.863-84.44 62.32s-77.478 52.281-115.56 81.8c-38.082 29.519-72.81 60.815-95.4 91.44-22.568 30.595-32.603 59.415-25.2 86.16 0.007 0.027-0.007 0.055 0 0.080 0.156 0.671 0.246 1.441 0.246 2.232 0 5.656-4.585 10.241-10.241 10.241-4.464 0-8.261-2.856-9.663-6.841l-0.022-0.072c-0.008-0.027 0.008-0.053 0-0.080h-0.041c-0.045-0.16 0.043-0.32 0-0.48-10.896-38.612-2.003-77.431 17.8-113.76 19.899-36.505 50.628-71.138 84.8-103.36 68.345-64.444 151.172-119.833 187.8-154.32 75.73-71.263 110.396-123.562 116.6-135.6 1.74-3.317 5.16-5.541 9.099-5.541 0.932 0 1.835 0.124 2.693 0.358l-0.072-0.017c0 0 49.422 13.043 95.24 43.44 22.909 15.199 45.165 34.853 59.84 60.080s21.307 56.275 12.76 91.6c-0.229 0.955-0.559 1.795-0.987 2.573l0.027-0.053-242.399 439.72 31 132.8c0.168 0.695 0.264 1.492 0.264 2.312 0 5.656-4.585 10.241-10.241 10.241-0.431 0-0.856-0.027-1.273-0.078l0.050 0.005zM784.32 937l-28.36-121.52c-0.165-0.688-0.259-1.477-0.259-2.288 0-1.833 0.482-3.554 1.325-5.043l-0.027 0.051 243.32-441.52c7.005-29.985 1.702-54.452-10.6-75.6-12.439-21.384-32.28-39.215-53.48-53.28-37.557-24.917-73.767-35.898-82.64-38.48-11.915 20.644-44.278 66.602-115.56 133.68-39.742 37.418-121.183 91.543-187.76 154.32-22.365 21.089-41.44 43.165-58.080 65.48 20.657-21.35 43.55-42.269 69.16-62.12 38.836-30.103 80.591-58.178 116.64-82.6s66.624-45.556 81.72-60.12c65.343-63.021 85.676-91.676 96.72-119.96 1.53-3.85 5.224-6.523 9.542-6.523 0.33 0 0.657 0.016 0.979 0.046l-0.041-0.003c0 0 28.083 2.525 57.040 20.68s59.313 53.041 64.040 113.92c0.018 0.227 0.028 0.49 0.028 0.757 0 1.952-0.546 3.776-1.493 5.328l0.026-0.045-258.72 433.56 33.12 95c0.359 1.001 0.567 2.156 0.567 3.36 0 5.602-4.498 10.153-10.079 10.24h-0.008c-53.892 0.732-110.259-36.304-159.080-64.96-207.097 37.248-398.050-30.912-505.52-234.36-108.974-206.335-15.302-452.191 174.080-570.84 69.672-43.65 147.306-67.935 225.36-73.52-209.867 11.621-428.35 148.697-462.2 399.28v0.080c-13.703 108.33 10.721 246.851 98.68 353.32 87.979 106.494 239.42 182.338 484.16 165.12 0.221-0.017 0.479-0.027 0.738-0.027 2.281 0 4.387 0.746 6.089 2.006l-0.028-0.020c51.773 38.035 105.897 48.406 170.6 56.6zM699.8-4.2c-9.523-4.396-19.744-7.444-29.68-11.080 10.011 3.352 19.892 7.034 29.68 11.080zM646.24-23.92c-8.239-2.443-17.078-2.884-25.52-4.84 8.474 1.83 17.154 2.539 25.52 4.84zM543.32-38.88c-17.56-1.038-34.536-1.905-52.36-1.080 17.491-1.081 34.926 0.255 52.36 1.080zM797.819 949.76c-72.294-8.561-132.137-18.473-190.177-61.112-494.305 34.775-621.814-308.204-593.715-530.022 57.61-427.008 639.754-541.102 832.492-252.641-152.453-157.614-394.772-179.241-580.055-63.16s-276.726 356.188-170.455 557.404c106.291 201.216 293.13 266.895 498.627 228.598 49.766 29.041 107.008 65.946 156.774 65.27l-34.693-99.533 261.161-437.658c-8.991-115.794-111.8-125.174-111.8-125.174-11.756 30.106-33.464 60.252-99.164 123.617-65.679 63.365-357.683 208.425-323.338 331.919-40.98-142.684 211.169-289.833 287.539-361.738 76.39-71.885 111.124-123.699 118.682-138.363 0 0 192.348 51.282 160.522 182.825l-244.265 443.146z" />
<glyph unicode="&#xe91b;" glyph-name="fsi-title-nm" data-tags="Title NM National Master" d="M99.609 641.747c-43.784-2.922-76.988-5.659-99.608-8.209 25.909-11.311 43.055-25.909 51.444-43.784 5.473-11.675 8.209-29.737 8.209-54.181l-3.829-66.77v-30.654c0-68.229-3.83-116.029-11.497-143.395-2.187-7.295-6.931-13.498-14.233-18.605-10.946-7.659-16.785-11.86-17.514-12.59 9.489-2.187 23.351-3.288 41.598-3.288 13.498 0 30.282 2.009 50.353 6.024 27.366 5.838 41.227 8.759 41.598 8.759-13.132 2.187-22.808 3.286-29.010 3.286-9.489 0-18.791 2.551-27.915 7.659-2.922 1.821-5.108 4.558-6.567 8.209-0.73 1.821-1.643 6.022-2.736 12.59-3.652 33.932-5.473 58.198-5.473 72.795-2.187 70.422-2.007 129.162 0.55 176.234 22.986-22.986 62.576-63.305 118.766-120.953 36.49-37.584 87.385-88.478 152.698-152.698 17.514-17.148 26.816-25.722 27.915-25.722 1.457 0 2.558 0.363 3.288 1.093l6.567 100.704c4.016 65.314 6.023 102.531 6.023 111.65v25.722c0 4.743 3.83 46.521 11.497 125.332 4.38 2.551 13.318 5.287 26.816 8.209 11.675 2.922 19.156 5.659 22.443 8.209l-68.957 3.286c-7.659 0-21.163-3.286-40.498-9.853-17.148-5.838-27-9.667-29.551-11.497 4.38 0 11.125 0.186 20.249 0.55l13.682 1.093c4.38 0 6.753-1.094 7.116-3.286 2.551-25.543 4.015-44.699 4.38-57.468 2.187-39.041 4.38-79.176 6.567-120.41l2.736-84.284c0-2.922-0.551-5.108-1.643-6.567-70.422 69.329-116.392 115.115-137.921 137.372-56.189 59.477-98.696 111.286-127.525 155.434zM626.66 640.654l-40.498-3.829c0.364 0-4.194 0.363-13.682 1.093-9.125 0.73-16.598 0.916-22.443 0.551-8.024 0-12.768-0.73-14.233-2.187 28.459-9.853 42.693-34.847 42.693-74.982 0-27-4.016-74.43-12.041-142.302-6.567-54.731-11.125-89.027-13.682-102.896-2.187-10.582-5.472-21.527-9.853-32.838-4.743-12.404-8.032-22.078-9.853-29.010 14.963 4.743 33.203 7.116 54.731 7.116 1.094 0 7.48-0.366 19.156-1.094 12.041-0.364 18.427-0.55 19.156-0.55 4.38 0 6.931 1.458 7.659 4.38-15.327 0.73-28.824 8.574-40.498 23.536-11.675 15.327-17.148 30.467-16.419 45.43 0.364 16.054 0.364 24.443 0 25.179l7.659 116.030c0 16.419 2.736 46.157 8.209 89.212 10.582-17.148 41.962-74.795 94.135-172.948 43.057-81.004 66.407-121.502 70.059-121.502 9.853 0 35.575 43.784 77.167 131.356 25.909 56.554 51.995 113.107 78.268 169.667l7.116-107.82 2.187-190.459c-0.73-2.922-1.093-5.109-1.093-6.567 0-6.202 7.659-9.303 22.986-9.303l65.678 2.736c7.659 0 12.59 0.73 14.776 2.187-1.457 2.187-7.294 4.016-17.513 5.473-9.853 1.821-15.69 6.567-17.513 14.233-5.109 22.986-9.125 52.722-12.041 89.212-1.094 17.148-2.55 47.072-4.38 89.757l-0.551 127.525c0 1.094 0.73 9.125 2.187 24.078 0.73 9.853 2.372 15.505 4.923 16.97 4.38 2.922 6.567 5.108 6.567 6.567-21.893-1.457-46.7-3.466-74.43-6.023-8.024-33.568-20.614-69.872-37.761-108.913l-47.072-108.369c-19.706-45.608-32.11-71.516-37.219-77.718-21.527 32.474-47.98 78.267-79.361 137.372-35.025 66.406-59.841 120.045-74.439 160.908-2.187 5.838-5.109 8.759-8.759 8.759z" />
<glyph unicode="&#xe91c;" glyph-name="fsi-title-cn" data-tags="Title CN National Candidate Master" d="M598.698 660.699c-48-3.2-84.399-6.2-109.199-9 28.4-12.4 47.2-28.4 56.4-48 6-12.8 9-32.598 9-59.398l-4.201-73.201v-33.6c0-74.8-4.2-127.199-12.6-157.199-2.4-8-7.6-14.8-15.6-20.4-12-8.4-18.401-13.001-19.201-13.801 10.4-2.4 25.602-3.6 45.602-3.6 14.8 0 33.199 2.2 55.199 6.6 30 6.4 45.2 9.6 45.6 9.6-14.4 2.4-24.999 3.602-31.799 3.602-10.4 0-20.602 2.798-30.602 8.398-3.2 2-5.599 5-7.199 9-0.8 2-1.8 6.601-3 13.801-4 37.2-6 63.801-6 79.801-2.4 77.2-2.2 141.599 0.6 193.199 25.2-25.2 68.601-69.4 130.201-132.6 40-41.2 95.798-97 167.398-167.4 19.2-18.8 29.402-28.199 30.602-28.199 1.6 0 2.8 0.399 3.6 1.199l7.199 110.4c4.4 71.6 6.6 112.4 6.6 122.4v28.199c0 5.2 4.202 51 12.602 137.4 4.8 2.8 14.598 5.8 29.398 9 12.8 3.2 21.002 6.2 24.602 9l-75.602 3.6c-8.4 0-23.198-3.601-44.398-10.801-18.8-6.4-29.6-10.6-32.4-12.6 4.8 0 12.199 0.2 22.199 0.6l15 1.201c4.8 0 7.401-1.2 7.801-3.6 2.8-28 4.399-49 4.799-63 2.4-42.8 4.801-86.8 7.201-132l3-92.4c0-3.2-0.601-5.601-1.801-7.201-77.2 76-127.599 126.202-151.199 150.602-61.6 65.2-108.201 121.998-139.801 170.398zM264.499 660.1c-36 0-71.599-8-106.799-24-39.6-18-70.4-43-92.4-75-16.8-24-25.201-60.2-25.201-108.6 0-56.8 18.601-106.6 55.801-149.4 40-45.2 89.601-67.799 148.801-67.799 1.2 0 5.998 0.2 14.398 0.6s13.001 0.6 13.801 0.6c16.8 0 50 9.2 99.6 27.6 24.4 8.8 38.001 15.401 40.801 19.801-2 2.8-4.2 4.199-6.6 4.199l-26.4-9.6c-17.6-6.4-37.201-9.6-58.801-9.6-52 0-100.399 21-145.199 63-46.4 43.2-72.4 93.799-78 151.799 0 10.4-0.2 18.2-0.6 23.4s-0.602 7.2-0.602 6c0 5.2 0.8 12.601 2.4 22.201 2 9.6 4 15.199 6 16.799 4.4 30.8 21.6 54 51.6 69.6 22.8 12 48.8 18 78 18 30.4 0 60.602-6.599 90.602-19.799 37.2-16.8 55.799-38 55.799-63.6 0-4-0.399-8-1.199-12 0.4 0 0.999 0.2 1.799 0.6 1.2 0.4 2 0.6 2.4 0.6 10.4 37.2 25.4 66.2 45 87v4.801l-101.4 19.799c-42.8 2-64 3-63.6 3z" />
<glyph unicode="&#xe91d;" glyph-name="fsi-category-1n" data-tags="Category 1N Prima Nazionale" horiz-adv-x="896" d="M209.005 710.338c-100.336-41.807-161.421-72-183.255-90.582 6.504 1.394 20.672 6.039 42.504 13.936 22.297 8.361 34.143 12.542 35.535 12.542 19.51 0 29.267-26.012 29.267-78.038v-239.693c0-29.728-4.645-77.342-13.936-142.84 28.801 10.684 45.988 16.956 51.562 18.814 13.471 5.574 26.246 15.329 38.322 29.264zM422.916 692.222c-55.742-3.717-98.015-7.199-126.816-10.451 32.98-14.4 54.812-32.98 65.498-55.742 6.968-14.865 10.451-37.859 10.451-68.98l-4.876-85.009v-39.019c0-86.865-4.879-147.715-14.635-182.555-2.787-9.291-8.826-17.187-18.117-23.691-13.936-9.756-21.366-15.099-22.296-16.027 12.078-2.787 29.728-4.181 52.955-4.181 17.187 0 38.553 2.555 64.102 7.664 34.84 7.432 52.493 11.151 52.957 11.151-16.723 2.787-29.034 4.181-36.931 4.181-12.078 0-23.922 3.252-35.535 9.756-3.717 2.322-6.505 5.807-8.363 10.451-0.93 2.322-2.090 7.663-3.484 16.024-4.645 43.201-6.968 74.093-6.968 92.673-2.787 89.652-2.552 164.438 0.7 224.362 29.266-29.266 79.665-80.594 151.2-153.988 46.451-47.846 111.252-112.646 194.402-194.402 22.297-21.832 34.143-32.747 35.535-32.747 1.857 0 3.252 0.464 4.181 1.393l8.363 128.207c5.109 83.148 7.664 130.529 7.664 142.142v32.747c0 6.039 4.877 59.227 14.633 159.562 5.574 3.252 16.955 6.736 34.143 10.451 14.865 3.717 24.387 7.199 28.568 10.451l-87.795 4.181c-9.756 0-26.941-4.18-51.562-12.542-21.832-7.432-34.375-12.313-37.627-14.635 5.574 0 14.169 0.235 25.782 0.7l17.42 1.393c5.574 0 8.593-1.394 9.057-4.181 3.252-32.516 5.111-56.904 5.575-73.162 2.787-49.703 5.573-100.801 8.36-153.291l3.484-107.305c0-3.717-0.696-6.503-2.089-8.36-89.652 88.26-148.183 146.557-175.589 174.892-71.536 75.717-125.651 141.679-162.348 197.885z" />
<glyph unicode="&#xe91e;" glyph-name="fsi-category-2n" data-tags="Category 2N Seconda Nazionale" horiz-adv-x="896" d="M188.536 665.866c-23.941 0-50.276-9.177-79.005-27.532-28.331-18.355-48.682-38.906-61.051-61.65 7.182 2.793 19.553 11.172 37.11 25.137 11.572 9.577 28.13 14.365 49.677 14.365 25.138 0 46.087-8.18 62.846-24.54 16.759-15.961 25.139-36.91 25.139-62.846 0-47.085-28.531-102.348-85.591-165.793-23.941-27.133-69.829-70.628-137.662-130.481l264.55-1.196c6.783 0 18.156 7.182 34.117 21.547 15.961 13.168 25.737 23.741 29.328 31.721l-229.239-2.993c5.187 20.35 23.343 46.087 54.466 77.211 41.897 41.897 69.031 71.824 81.4 89.78 27.932 39.503 41.897 80.005 41.897 121.503 0 28.73-8.18 51.873-24.54 69.43-15.961 17.557-37.109 26.335-63.444 26.335zM511.744 651.501c-47.883-3.192-84.195-6.185-108.934-8.978 28.331-12.37 47.085-28.331 56.262-47.883 5.985-12.769 8.978-32.52 8.978-59.255l-4.189-73.020v-33.518c0-74.617-4.192-126.89-12.571-156.817-2.394-7.98-7.581-14.764-15.562-20.35-11.971-8.379-18.354-12.967-19.152-13.765 10.375-2.394 25.537-3.591 45.488-3.591 14.764 0 33.118 2.195 55.064 6.584 29.927 6.384 45.091 9.577 45.49 9.577-14.365 2.394-24.94 3.591-31.723 3.591-10.375 0-20.55 2.793-30.525 8.379-3.192 1.995-5.587 4.988-7.183 8.978-0.798 1.995-1.796 6.585-2.993 13.767-3.99 37.109-5.985 63.643-5.985 79.604-2.394 77.011-2.193 141.255 0.601 192.728 25.138-25.138 68.431-69.232 129.881-132.278 39.902-41.099 95.566-96.761 166.991-166.989 19.153-18.754 29.328-28.132 30.525-28.132 1.596 0 2.793 0.4 3.591 1.198l7.183 110.128c4.389 71.425 6.584 112.125 6.584 122.101v28.132c0 5.187 4.19 50.873 12.569 137.062 4.788 2.793 14.564 5.786 29.328 8.978 12.769 3.192 20.949 6.185 24.54 8.978l-75.415 3.593c-8.379 0-23.143-3.592-44.291-10.775-18.754-6.384-29.528-10.574-32.321-12.569 4.788 0 12.171 0.2 22.147 0.599l14.963 1.196c4.788 0 7.381-1.197 7.78-3.591 2.793-27.932 4.39-48.88 4.789-62.846 2.394-42.695 4.787-86.588 7.181-131.677l2.993-92.174c0-3.192-0.598-5.585-1.795-7.181-77.011 75.814-127.289 125.891-150.831 150.232-61.449 65.041-107.934 121.702-139.457 169.983z" />
<glyph unicode="&#xe91f;" glyph-name="fsi-category-3n" data-tags="Category 3N Terza Nazionale" horiz-adv-x="896" d="M282.947 360.144q0-92.378-136.306-136.306-51.68-17.442-65.892-17.442-10.336 0-41.99 13.566-31.008 14.212-38.76 21.318 23.902 21.964 50.388 26.486 72.998-23.256 100.13-23.256 22.61 0 49.742 25.84 27.778 26.486 27.778 49.096 0 88.502-85.272 119.51-3.23 1.292-74.936 23.256l87.856 45.866q14.212 7.752 22.61 30.362 9.044 19.38 9.044 36.822 0 75.582-86.564 75.582-28.424 0-44.574-9.69-34.884-18.734-37.468-20.026 21.318 29.070 69.122 50.388 45.22 18.088 83.334 18.088 31.008 0 54.91-26.486t23.902-58.14-22.61-54.91q-12.92-13.566-43.928-32.946-24.548-15.504-26.486-24.548 9.044-5.168 38.114-13.566 40.052-13.566 63.954-44.574 23.902-30.362 23.902-74.29zM896.002 665.056q-5.814-4.522-26.486-9.69-23.902-5.168-31.654-9.69-13.566-139.536-13.566-147.934v-30.362q0-16.15-7.106-131.784-3.876-59.432-7.752-118.864-1.292-1.292-3.876-1.292-1.938 0-32.946 30.362-115.634 113.696-180.234 180.234-99.484 102.068-140.182 142.766-4.522-83.334-0.646-208.012 0-25.84 6.46-85.918 1.938-11.628 3.23-14.858 2.584-6.46 7.752-9.69 16.15-9.044 32.946-9.044 10.982 0 34.238-3.876-0.646 0-49.096-10.336-35.53-7.106-59.432-7.106-32.3 0-49.096 3.876 1.292 1.292 20.672 14.858 12.92 9.044 16.796 21.964 13.566 48.45 13.566 169.252v36.176l4.522 78.812q0 43.282-9.69 63.954-14.858 31.654-60.724 51.68 40.052 4.522 117.572 9.69 51.034-78.166 150.518-183.464 38.114-39.406 162.792-162.146 1.938 2.584 1.938 7.752l-3.23 99.484q-3.876 72.998-7.752 142.12-0.646 22.61-5.168 67.83-0.646 3.876-8.398 3.876 0 0-16.15-1.292-16.15-0.646-23.902-0.646 4.522 3.23 34.884 13.566 34.238 11.628 47.804 11.628z" />
<glyph unicode="&#xe920;" glyph-name="fide-title-wcm" data-tags="Title WCM Woman Candidate Master" horiz-adv-x="896" d="M495.258 559.528c-18.903 0-37.596-4.201-56.078-12.602-20.793-9.452-36.966-22.579-48.518-39.381-8.821-12.602-13.233-31.61-13.233-57.024 0-29.825 9.767-55.974 29.3-78.448 21.003-23.734 47.048-35.601 78.133-35.601 0.63 0 3.149 0.105 7.56 0.315s6.827 0.316 7.247 0.316c8.821 0 26.254 4.831 52.298 14.492 12.812 4.621 19.954 8.086 21.424 10.396-1.050 1.47-2.205 2.206-3.466 2.206l-13.862-5.041c-9.241-3.361-19.534-5.042-30.875-5.042-27.304 0-52.718 11.027-76.242 33.080-24.364 22.684-38.016 49.253-40.957 79.708 0 5.461-0.105 9.557-0.315 12.287s-0.316 3.781-0.316 3.151c0 2.73 0.42 6.616 1.26 11.656 1.050 5.041 2.1 7.982 3.151 8.822 2.31 16.173 11.342 28.355 27.094 36.546 11.972 6.301 25.624 9.452 40.957 9.452 15.963 0 31.821-3.466 47.574-10.397 19.533-8.821 29.299-19.953 29.299-33.395 0-2.1-0.21-4.201-0.63-6.301 0.21 0 0.525 0.105 0.945 0.315 0.63 0.21 1.050 0.316 1.26 0.316 5.461 19.533 13.337 34.761 23.629 45.682v2.52l-53.244 10.397c-22.474 1.050-33.605 1.575-33.395 1.575zM667.275 559.213l-23.314-2.206c0.21 0-2.415 0.211-7.876 0.631-5.251 0.42-9.557 0.525-12.917 0.315-4.621 0-7.351-0.42-8.191-1.26 16.383-5.671 24.573-20.058 24.573-43.161 0-15.543-2.31-42.847-6.931-81.913-3.781-31.505-6.406-51.249-7.876-59.23-1.26-6.091-3.151-12.392-5.671-18.903-2.73-7.141-4.62-12.708-5.67-16.698 8.611 2.73 19.113 4.096 31.505 4.096 0.63 0 4.306-0.21 11.027-0.63 6.931-0.21 10.607-0.316 11.027-0.316 2.52 0 3.991 0.841 4.411 2.521-8.821 0.42-16.593 4.936-23.314 13.548-6.721 8.821-9.872 17.537-9.452 26.149 0.21 9.241 0.21 14.072 0 14.492l4.411 66.791c0 9.452 1.575 26.569 4.726 51.353 6.091-9.872 24.153-43.057 54.188-99.556 24.784-46.628 38.227-69.941 40.327-69.941 5.671 0 20.478 25.204 44.422 75.612 14.912 32.555 29.929 65.11 45.052 97.666l4.096-62.066 1.26-109.637c-0.42-1.68-0.631-2.941-0.631-3.781 0-3.571 4.411-5.355 13.233-5.355l37.806 1.575c4.411 0 7.246 0.42 8.506 1.26-0.84 1.26-4.2 2.31-10.081 3.151-5.671 1.050-9.032 3.781-10.082 8.191-2.94 13.232-5.25 30.35-6.931 51.354-0.63 9.872-1.471 27.093-2.521 51.667l-0.315 73.407c0 0.63 0.42 5.251 1.26 13.862 0.42 5.671 1.365 8.926 2.835 9.767 2.52 1.68 3.78 2.94 3.78 3.78-12.602-0.84-26.884-1.995-42.847-3.466-4.621-19.323-11.867-40.221-21.738-62.695l-27.094-62.38c-11.342-26.254-18.483-41.167-21.424-44.738-12.392 18.693-27.619 45.053-45.682 79.079-20.163 38.226-34.446 69.1-42.847 92.624-1.26 3.361-2.94 5.042-5.041 5.042zM49.776 558.897l-46.312-0.63c-1.68 0-2.835-0.63-3.466-1.89 0.42-1.050 1.26-1.575 2.52-1.575h4.096c1.68-0.21 2.835-0.735 3.466-1.575 17.643-28.775 33.081-62.171 46.313-100.187 12.602-37.386 25.204-74.667 37.806-111.843 1.050-1.050 2.1-1.575 3.151-1.575l69.626 163.197c0.63-1.68 11.866-28.67 33.71-80.969 13.442-32.345 24.574-56.814 33.395-73.406 4.201-7.771 6.617-11.657 7.247-11.657 0.84 0 3.466 3.361 7.876 10.082 9.241 14.072 18.693 32.765 28.355 56.078l19.533 49.149 16.698 40.326c10.922 26.464 19.008 47.153 24.258 62.066-3.571 0.21-7.771 0.21-12.602 0-5.881-0.42-9.976-0.631-12.286-0.631l-26.464 1.575c-1.26 0-2.835-0.63-4.726-1.89 4.831-1.89 9.766-3.675 14.807-5.355 4.831-2.52 7.247-6.616 7.247-12.287 0-17.853-5.986-45.998-17.958-84.434-10.502-33.395-20.163-58.704-28.984-75.927-22.054 50.828-35.39 82.124-40.011 93.886-11.762 29.615-20.794 59.019-27.095 88.214-2.73 0.21-6.511-0.001-11.342-0.631-5.461-0.63-8.926-0.945-10.396-0.945-0.42 0-3.677 0.21-9.768 0.63-6.091 0.63-9.347 0.946-9.767 0.946-4.831-0.42-7.666-1.261-8.506-2.521 2.73-1.47 5.040-2.205 6.931-2.205 0.84 0 3.361-5.566 7.561-16.698 4.201-10.922 6.301-16.907 6.301-17.957 0-8.191-7.876-31.086-23.629-68.682-14.072-33.185-22.264-51.668-24.574-55.449-14.492 37.596-30.245 80.548-47.258 128.856-8.401 23.944-13.652 35.915-15.753 35.915zM14.805 465.013l-1.575-3.466 0.631-0.316 1.89 3.781h-0.946z" />
<glyph unicode="&#xe921;" glyph-name="fide-title-wfm" data-tags="Title WFM Woman Fide Master" horiz-adv-x="896" d="M550.187 570.489c-2.933-0.226-7.105-0.676-12.519-1.352-5.188-0.451-7.895-0.677-8.121-0.677l-71.396-1.692c-3.835-0.226-10.038-0.79-18.61-1.692-8.346-0.677-14.889-1.015-19.626-1.015h-5.752c-3.835-0.226-6.767-0.339-8.798-0.339v-3.384c6.091-0.902 10.263-5.527 12.519-13.873l3.384-18.949v-174.26c-1.128-12.407-3.722-20.979-7.782-25.716 2.030-1.353 3.835-2.030 5.414-2.030l54.477 0.676c3.835 0 6.316 0.564 7.444 1.692-0.902 1.353-2.707 2.256-5.414 2.708-4.963 0.677-10.715 2.142-17.257 4.398-2.030 0.677-3.383 4.399-4.060 11.167-0.451 6.767-0.902 13.309-1.353 19.625-0.677 16.693-1.128 29.1-1.353 37.221v38.574h30.792c5.639 0 12.182-0.451 19.626-1.353 9.7-1.579 15.791-3.721 18.272-6.428s3.609-8.798 3.384-18.272c1.353 1.579 2.706 5.188 4.060 10.827 0.677 4.060 1.466 8.121 2.368 12.181 0.677 2.481 1.919 5.752 3.723 9.813 1.805 4.286 2.706 6.542 2.706 6.767 0 0.677-0.225 1.353-0.676 2.030-12.858-5.639-23.009-8.459-30.453-8.459h-12.52c-7.895-0.226-12.068-0.338-12.519-0.338-14.663 0-24.25 0.677-28.761 2.030l1.692 87.638c0.451 6.316 0.902 12.746 1.353 19.288 0.451 0.902 4.963 1.352 13.535 1.352l42.296-1.352c11.956-0.902 19.512-4.964 22.67-12.182 0.902-2.481 2.030-4.059 3.384-4.736 0.451 1.353 1.354 4.85 2.708 10.489 0.902 4.512 2.255 8.233 4.060 11.166 3.158 4.060 5.527 6.88 7.106 8.459zM650.344 566.091l-25.038-2.369c0.226 0-2.594 0.226-8.459 0.677-5.639 0.451-10.265 0.564-13.874 0.338-4.963 0-7.895-0.451-8.798-1.353 17.595-6.091 26.393-21.542 26.393-46.356 0-16.693-2.482-46.018-7.445-87.976-4.060-33.837-6.88-55.042-8.459-63.614-1.353-6.542-3.383-13.309-6.090-20.302-2.933-7.67-4.963-13.647-6.091-17.933 9.249 2.933 20.528 4.398 33.837 4.398 0.677 0 4.624-0.225 11.843-0.676 7.444-0.226 11.392-0.338 11.843-0.338 2.707 0 4.286 0.902 4.737 2.706-9.474 0.451-17.821 5.302-25.039 14.55-7.219 9.474-10.602 18.835-10.151 28.084 0.226 9.926 0.226 15.115 0 15.566l4.737 71.734c0 10.151 1.692 28.536 5.076 55.155 6.542-10.602 25.941-46.245 58.199-106.926 26.618-50.079 41.056-75.117 43.312-75.117 6.091 0 21.994 27.070 47.71 81.209 16.016 34.965 32.146 69.93 48.387 104.895l4.398-66.658 1.353-117.753c-0.451-1.805-0.676-3.158-0.676-4.060 0-3.835 4.737-5.753 14.211-5.753l40.604 1.692c4.737 0 7.783 0.451 9.137 1.353-0.902 1.353-4.512 2.481-10.828 3.384-6.091 1.128-9.699 4.060-10.827 8.798-3.158 14.212-5.64 32.597-7.445 55.155-0.677 10.602-1.578 29.1-2.706 55.493l-0.338 78.84c0 0.677 0.45 5.639 1.352 14.888 0.451 6.091 1.466 9.587 3.045 10.489 2.707 1.805 4.061 3.159 4.061 4.061-13.535-0.902-28.875-2.144-46.019-3.723-4.963-20.753-12.744-43.197-23.346-67.334l-29.101-66.998c-12.181-28.197-19.85-44.213-23.009-48.048-13.309 20.077-29.664 48.387-49.064 84.931-21.656 41.055-36.995 74.216-46.018 99.481-1.353 3.609-3.159 5.414-5.415 5.414zM53.461 565.753l-49.741-0.677c-1.805 0-3.045-0.677-3.722-2.030 0.451-1.128 1.354-1.692 2.708-1.692h4.398c1.805-0.226 3.046-0.79 3.723-1.692 18.949-30.904 35.528-66.772 49.74-107.602 13.535-40.153 27.070-80.194 40.604-120.121 1.128-1.128 2.256-1.692 3.384-1.692l74.78 175.276c0.677-1.805 12.746-30.791 36.206-86.96 14.437-34.739 26.393-61.020 35.867-78.841 4.512-8.346 7.105-12.519 7.782-12.519 0.902 0 3.722 3.609 8.459 10.827 9.926 15.114 20.077 35.191 30.453 60.23l20.979 52.786 17.933 43.311c11.73 28.423 20.416 50.643 26.055 66.659-3.835 0.226-8.346 0.226-13.535 0-6.316-0.451-10.715-0.677-13.196-0.677l-28.423 1.692c-1.353 0-3.045-0.677-5.076-2.030 5.188-2.030 10.49-3.947 15.904-5.752 5.188-2.707 7.782-7.106 7.782-13.196 0-19.174-6.428-49.403-19.286-90.684-11.279-35.867-21.656-63.050-31.131-81.547-23.686 54.59-38.010 88.202-42.972 100.835-12.632 31.807-22.332 63.388-29.1 94.743-2.933 0.226-6.993-0.001-12.181-0.677-5.865-0.677-9.588-1.015-11.167-1.015-0.451 0-3.948 0.225-10.489 0.676-6.542 0.677-10.038 1.016-10.489 1.016-5.188-0.451-8.234-1.354-9.137-2.708 2.933-1.579 5.414-2.368 7.445-2.368 0.902 0 3.608-5.978 8.12-17.934 4.512-11.73 6.767-18.159 6.767-19.286 0-8.798-8.459-33.386-25.378-73.765-15.114-35.642-23.911-55.493-26.392-59.553-15.565 40.379-32.483 86.51-50.755 138.393-9.023 25.716-14.663 38.574-16.918 38.574zM15.903 464.918l-1.692-3.722 0.676-0.338 2.030 4.060h-1.015z" />
<glyph unicode="&#xe922;" glyph-name="fide-title-wim" data-tags="Title WIM Woman International Master" horiz-adv-x="896" d="M492.232 580.143c0.979 0-1.836-0.612-8.443-1.835-6.362-0.979-14.070-1.468-23.124-1.468h-8.81c-5.628-0.245-9.667-0.367-12.114-0.367 6.607-6.118 10.034-13.337 10.278-21.657 0.245-8.075 0.489-16.028 0.734-23.859 0.489-3.915 0.735-6.974 0.735-9.177 0.245 0.245 0.367-27.163 0.367-82.223l-1.468-59.831-6.608-62.034h57.263c0.979 1.468 1.467 2.448 1.467 2.937-6.607 2.447-9.91 3.793-9.91 4.038-2.202 2.692-3.548 6.485-4.038 11.379l-1.468 11.745 0.734 117.461c0.979 43.803 3.426 82.101 7.341 114.892h-2.936zM629.513 575.004l-27.163-2.569c0.245 0-2.814 0.244-9.177 0.734-6.118 0.489-11.134 0.612-15.050 0.367-5.384 0-8.565-0.488-9.544-1.467 19.087-6.607 28.632-23.37 28.632-50.288 0-18.109-2.692-49.921-8.076-95.437-4.405-36.706-7.464-59.709-9.177-69.008-1.468-7.097-3.67-14.438-6.607-22.024-3.181-8.32-5.384-14.806-6.608-19.455 10.033 3.181 22.269 4.772 36.706 4.772 0.734 0 5.017-0.245 12.847-0.735 8.075-0.245 12.358-0.367 12.847-0.367 2.937 0 4.649 0.979 5.139 2.937-10.278 0.489-19.332 5.75-27.163 15.783-7.831 10.278-11.501 20.434-11.012 30.467 0.245 10.767 0.245 16.396 0 16.885l5.139 77.817c0 11.012 1.835 30.956 5.506 59.832 7.097-11.501 28.141-50.166 63.135-115.992 28.876-54.326 44.538-81.489 46.985-81.489 6.607 0 23.859 29.365 51.756 88.096 17.374 37.93 34.872 75.86 52.491 113.79l4.771-72.311 1.468-127.739c-0.489-1.958-0.734-3.425-0.734-4.404 0-4.16 5.138-6.239 15.416-6.239l44.048 1.835c5.139 0 8.442 0.488 9.91 1.467-0.979 1.468-4.894 2.692-11.745 3.671-6.607 1.224-10.522 4.406-11.745 9.545-3.426 15.417-6.118 35.36-8.076 59.831-0.734 11.501-1.712 31.568-2.936 60.199l-0.368 85.527c0 0.734 0.489 6.117 1.468 16.15 0.489 6.607 1.591 10.401 3.304 11.38 2.937 1.958 4.404 3.425 4.404 4.404-14.683-0.979-31.323-2.325-49.921-4.038-5.384-22.513-13.826-46.862-25.327-73.046l-31.568-72.679c-13.214-30.589-21.534-47.963-24.96-52.123-14.438 21.779-32.179 52.49-53.224 92.133-23.492 44.537-40.134 80.51-49.922 107.917-1.468 3.915-3.426 5.873-5.873 5.873zM57.994 574.637l-53.958-0.734c-1.958 0-3.304-0.735-4.038-2.204 0.489-1.224 1.468-1.835 2.936-1.835h4.772c1.958-0.245 3.304-0.856 4.038-1.835 20.556-33.525 38.541-72.433 53.958-116.726 14.683-43.558 29.365-86.994 44.048-130.308 1.224-1.224 2.447-1.835 3.671-1.835l81.123 190.139c0.734-1.958 13.825-33.402 39.275-94.335 15.661-37.685 28.631-66.195 38.909-85.527 4.894-9.054 7.709-13.581 8.443-13.581 0.979 0 4.038 3.915 9.177 11.745 10.767 16.396 21.779 38.175 33.036 65.338l22.757 57.262 19.455 46.985c12.725 30.833 22.146 54.937 28.263 72.311-4.16 0.245-9.054 0.245-14.683 0-6.852-0.489-11.624-0.734-14.316-0.734l-30.832 1.835c-1.468 0-3.304-0.734-5.506-2.202 5.628-2.202 11.378-4.283 17.251-6.241 5.628-2.937 8.443-7.708 8.443-14.316 0-20.8-6.975-53.591-20.923-98.373-12.235-38.909-23.492-68.396-33.769-88.463-25.695 59.22-41.234 95.681-46.618 109.385-13.704 34.504-24.226 68.763-31.568 102.778-3.181 0.245-7.586 0.001-13.214-0.734-6.362-0.734-10.401-1.102-12.114-1.102-0.489 0-4.282 0.245-11.379 0.735-7.097 0.734-10.89 1.101-11.379 1.101-5.628-0.489-8.931-1.468-9.91-2.936 3.181-1.713 5.872-2.57 8.075-2.57 0.979 0 3.915-6.484 8.81-19.454 4.894-12.725 7.341-19.7 7.341-20.923 0-9.544-9.177-36.216-27.53-80.020-16.396-38.664-25.94-60.2-28.632-64.605-16.885 43.803-35.238 93.846-55.060 150.129-9.788 27.897-15.906 41.845-18.353 41.845zM17.25 465.251l-1.835-4.038 0.734-0.367 2.204 4.404h-1.102z" />
<glyph unicode="&#xe923;" glyph-name="fide-category-gm" data-tags="Title WGM Woman Grandmaster" horiz-adv-x="896" d="M671.536 557.141l-22.878-2.165c0.206 0-2.37 0.207-7.729 0.619-5.153 0.412-9.379 0.515-12.677 0.309-4.535 0-7.214-0.412-8.039-1.237 16.077-5.565 24.117-19.684 24.117-42.357 0-15.253-2.268-42.048-6.802-80.387-3.71-30.918-6.287-50.294-7.729-58.126-1.237-5.977-3.091-12.161-5.565-18.551-2.68-7.008-4.535-12.471-5.566-16.387 8.451 2.68 18.757 4.020 30.918 4.020 0.618 0 4.225-0.206 10.821-0.618 6.802-0.206 10.409-0.31 10.821-0.31 2.473 0 3.916 0.825 4.329 2.474-8.657 0.412-16.283 4.844-22.879 13.295-6.596 8.657-9.688 17.21-9.275 25.661 0.206 9.069 0.206 13.81 0 14.222l4.329 65.547c0 9.275 1.546 26.074 4.638 50.396 5.977-9.688 23.703-42.255 53.178-97.701 24.322-45.759 37.514-68.637 39.576-68.637 5.565 0 20.097 24.734 43.594 74.203 14.635 31.949 29.373 63.897 44.213 95.846l4.019-60.909 1.237-107.594c-0.412-1.649-0.618-2.886-0.618-3.711 0-3.504 4.328-5.256 12.985-5.256l37.102 1.546c4.329 0 7.112 0.412 8.348 1.237-0.824 1.237-4.123 2.267-9.894 3.092-5.565 1.031-8.863 3.71-9.893 8.039-2.886 12.986-5.154 29.785-6.802 50.397-0.618 9.688-1.442 26.588-2.473 50.704l-0.309 72.039c0 0.618 0.411 5.153 1.236 13.604 0.412 5.565 1.34 8.76 2.783 9.585 2.473 1.649 3.711 2.885 3.711 3.71-12.367-0.824-26.384-1.958-42.049-3.401-4.535-18.963-11.645-39.472-21.332-61.527l-26.59-61.217c-11.13-25.765-18.138-40.4-21.024-43.904-12.161 18.345-27.105 44.214-44.831 77.605-19.787 37.514-33.804 67.812-42.048 90.898-1.237 3.298-2.887 4.948-4.948 4.948zM48.849 556.831l-45.45-0.618c-1.649 0-2.783-0.618-3.401-1.855 0.412-1.031 1.237-1.546 2.474-1.546h4.019c1.649-0.206 2.784-0.721 3.402-1.546 17.314-28.238 32.463-61.012 45.449-98.32 12.367-36.689 24.734-73.276 37.102-109.759 1.031-1.031 2.061-1.546 3.092-1.546l68.329 160.156c0.618-1.649 11.646-28.136 33.083-79.46 13.192-31.742 24.116-55.755 32.773-72.038 4.122-7.626 6.492-11.44 7.111-11.44 0.824 0 3.401 3.298 7.729 9.894 9.069 13.81 18.345 32.154 27.826 55.033l19.17 48.233 16.386 39.574c10.718 25.971 18.654 46.274 23.807 60.909-3.504 0.206-7.626 0.206-12.367 0-5.771-0.412-9.791-0.619-12.058-0.619l-25.971 1.546c-1.237 0-2.783-0.618-4.638-1.855 4.741-1.855 9.585-3.607 14.532-5.256 4.741-2.473 7.111-6.493 7.111-12.058 0-17.52-5.874-45.141-17.623-82.861-10.306-32.773-19.788-57.61-28.445-74.512-21.643 49.881-34.731 80.593-39.265 92.136-11.543 29.063-20.406 57.92-26.589 86.57-2.68 0.206-6.39-0.001-11.13-0.619-5.359-0.618-8.761-0.927-10.203-0.927-0.412 0-3.607 0.206-9.585 0.618-5.977 0.618-9.172 0.928-9.585 0.928-4.741-0.412-7.524-1.237-8.348-2.474 2.68-1.443 4.947-2.164 6.802-2.164 0.824 0 3.297-5.463 7.419-16.387 4.122-10.718 6.184-16.592 6.184-17.623 0-8.039-7.729-30.506-23.188-67.402-13.81-32.567-21.848-50.705-24.115-54.416-14.222 36.895-29.681 79.047-46.377 126.454-8.245 23.498-13.398 35.245-15.459 35.245zM501.489 555.285l-26.28-0.618c-32.567-1.031-58.642-12.677-78.223-34.938-17.726-19.994-26.589-43.903-26.589-71.729 0-28.032 8.245-52.354 24.734-72.966 18.551-23.085 43.182-34.629 73.894-34.629h4.019c2.473 0.206 3.916 0.31 4.329 0.31 19.581 0 39.781 4.534 60.599 13.603 28.032 12.161 42.048 28.548 42.048 49.16 0 10.306-4.431 17.83-13.294 22.571-6.39 3.504-14.429 5.256-24.117 5.256l-38.029-2.164c-1.855-0.206-2.68-1.031-2.474-2.474 5.771-2.061 10.409-3.195 13.913-3.401 3.916-1.237 8.244-3.916 12.985-8.039 4.947-3.916 8.451-7.936 10.512-12.058 4.122-7.214 6.184-15.253 6.184-24.117 0-15.665-9.069-23.498-27.207-23.498-30.918 0-58.744 11.131-83.479 33.392-25.765 23.085-38.647 50.499-38.647 82.242 0 34.216 13.088 56.786 39.265 67.71 12.779 5.359 22.673 8.039 29.681 8.039 0.412 0 0.722-0.103 0.928-0.309 0.412-0.206 0.824-0.309 1.237-0.309s2.061 0.206 4.947 0.618c3.092 0.412 4.843 0.618 5.256 0.618 13.192 0 26.177-2.061 38.957-6.184 20.612-6.39 30.918-16.696 30.918-30.918 0-1.237-0.515-3.813-1.546-7.729s-1.546-5.977-1.546-6.184v-2.473c2.68 1.855 4.122 3.401 4.329 4.638 1.031 4.122 2.68 8.553 4.947 13.294 1.649 3.504 5.36 8.864 11.131 16.078 5.977 7.214 9.48 11.852 10.511 13.913-24.528 5.977-36.895 8.966-37.102 8.966-14.016 2.886-26.279 4.327-36.791 4.327zM14.531 464.696l-1.546-3.401 0.618-0.31 1.855 3.711h-0.927z" />
<glyph unicode="&#xe924;" glyph-name="fide-title-cm" data-tags="Title CM Candidate Master" horiz-adv-x="896" d="M203.584 640.701c-32.661 0-64.959-7.258-96.894-21.774-35.926-16.331-63.871-39.012-83.831-68.044-15.242-21.774-22.862-54.617-22.862-98.528 0-51.532 16.873-96.714 50.624-135.544 36.29-41.008 81.291-61.513 135-61.513 1.089 0 5.444 0.18 13.064 0.544s11.793 0.546 12.519 0.546c15.242 0 45.363 8.347 90.363 25.040 22.137 7.984 34.477 13.971 37.017 17.963-1.815 2.54-3.81 3.811-5.988 3.811l-23.952-8.71c-15.968-5.806-33.751-8.711-53.348-8.711-47.177 0-91.087 19.052-131.733 57.157-42.097 39.193-65.685 85.102-70.766 137.721 0 9.435-0.18 16.513-0.544 21.23s-0.544 6.532-0.544 5.444c0 4.718 0.724 11.431 2.176 20.14 1.815 8.71 3.629 13.791 5.444 15.243 3.992 27.944 19.599 48.992 46.816 63.145 20.685 10.887 44.274 16.331 70.766 16.331 27.581 0 54.98-5.989 82.197-17.965 33.75-15.242 50.624-34.476 50.624-57.702 0-3.629-0.362-7.258-1.088-10.887 0.363 0 0.908 0.18 1.634 0.544 1.089 0.363 1.813 0.546 2.176 0.546 9.435 33.75 23.044 60.060 40.827 78.931v4.354l-91.994 17.965c-38.831 1.815-58.066 2.722-57.702 2.722zM500.801 640.158l-40.282-3.811c0.363 0-4.173 0.364-13.609 1.090-9.073 0.726-16.513 0.907-22.319 0.544-7.984 0-12.702-0.726-14.153-2.177 28.306-9.798 42.461-34.656 42.461-74.576 0-26.855-3.993-74.032-11.977-141.532-6.532-54.435-11.069-88.549-13.609-102.339-2.177-10.524-5.443-21.411-9.797-32.661-4.718-12.339-7.986-21.957-9.799-28.852 14.879 4.718 33.024 7.078 54.435 7.078 1.089 0 7.44-0.362 19.052-1.088 11.976-0.363 18.327-0.546 19.052-0.546 4.355 0 6.895 1.453 7.621 4.356-15.242 0.726-28.669 8.529-40.282 23.408-11.613 15.242-17.056 30.301-16.331 45.18 0.363 15.968 0.363 24.314 0 25.040l7.621 115.404c0 16.331 2.722 45.906 8.165 88.729 10.524-17.056 41.733-74.394 93.628-172.016 42.823-80.564 66.049-120.846 69.678-120.846 9.798 0 35.383 43.548 76.754 130.645 25.766 56.25 51.715 112.5 77.844 168.75l7.076-107.239 2.177-189.434c-0.726-2.902-1.088-5.082-1.088-6.533 0-6.169 7.62-9.253 22.862-9.253l65.322 2.722c7.621 0 12.519 0.726 14.697 2.177-1.452 2.177-7.257 3.992-17.418 5.444-9.798 1.815-15.604 6.532-17.418 14.153-5.081 22.863-9.073 52.44-11.977 88.731-1.089 17.056-2.539 46.813-4.354 89.272l-0.546 126.834c0 1.089 0.726 9.073 2.177 23.952 0.726 9.798 2.359 15.423 4.899 16.875 4.355 2.902 6.531 5.080 6.531 6.531-21.774-1.452-46.452-3.448-74.032-5.988-7.984-33.387-20.504-69.496-37.56-108.326l-46.814-107.78c-19.597-45.363-31.935-71.13-37.015-77.299-21.411 32.298-47.722 77.844-78.931 136.635-34.839 66.048-59.518 119.393-74.033 160.038-2.177 5.806-5.081 8.711-8.71 8.711z" />
<glyph unicode="&#xe925;" glyph-name="fide-title-im" data-tags="Title IM International Master" horiz-adv-x="896" d="M160.9 664c1.6 0-3.001-1-13.801-3-10.4-1.6-22.999-2.4-37.799-2.4h-14.4c-9.2-0.4-15.801-0.6-19.801-0.6 10.8-10 16.401-21.8 16.801-35.4 0.4-13.2 0.799-26.2 1.199-39 0.8-6.4 1.201-11.4 1.201-15 0.4 0.4 0.6-44.4 0.6-134.4l-2.4-97.799-10.799-101.4h93.6c1.6 2.4 2.4 4.001 2.4 4.801-10.8 4-16.201 6.2-16.201 6.6-3.6 4.4-5.8 10.6-6.6 18.6l-2.4 19.199 1.201 192c1.6 71.6 5.6 134.201 12 187.801h-4.801zM385.299 655.6l-44.398-4.199c0.4 0-4.6 0.399-15 1.199-10 0.8-18.202 1-24.602 0.6-8.8 0-14-0.798-15.6-2.398 31.2-10.8 46.801-38.201 46.801-82.201 0-29.6-4.401-81.6-13.201-156-7.2-60-12.2-97.599-15-112.799-2.4-11.6-5.999-23.6-10.799-36-5.2-13.6-8.801-24.201-10.801-31.801 16.4 5.2 36.4 7.801 60 7.801 1.2 0 8.2-0.401 21-1.201 13.2-0.4 20.2-0.6 21-0.6 4.8 0 7.6 1.601 8.4 4.801-16.8 0.8-31.6 9.399-44.4 25.799-12.8 16.8-18.8 33.401-18 49.801 0.4 17.6 0.4 26.8 0 27.6l8.4 127.199c0 18 3 50.601 9 97.801 11.6-18.8 45.999-82 103.199-189.6 47.2-88.8 72.801-133.201 76.801-133.201 10.8 0 39 48 84.6 144 28.4 62 57.001 124 85.801 186l7.799-118.199 2.4-208.801c-0.8-3.2-1.199-5.599-1.199-7.199 0-6.8 8.399-10.199 25.199-10.199l72 3c8.4 0 13.801 0.798 16.201 2.398-1.6 2.4-8.001 4.4-19.201 6-10.8 2-17.199 7.202-19.199 15.602-5.6 25.2-10.001 57.799-13.201 97.799-1.2 18.8-2.799 51.6-4.799 98.4l-0.6 139.801c0 1.2 0.798 9.998 2.398 26.398 0.8 10.8 2.6 17.002 5.4 18.602 4.8 3.2 7.201 5.599 7.201 7.199-24-1.6-51.202-3.8-81.602-6.6-8.8-36.8-22.598-76.6-41.398-119.4l-51.602-118.801c-21.6-50-35.199-78.399-40.799-85.199-23.6 35.6-52.6 85.8-87 150.6-38.4 72.8-65.6 131.6-81.6 176.4-2.4 6.4-5.602 9.6-9.602 9.6z" />
<glyph unicode="&#xe926;" glyph-name="fide-title-gm" data-tags="Title GM Grandmaster" horiz-adv-x="896" d="M513.356 634.053l-39.002-3.69c0.351 0-4.041 0.352-13.177 1.055-8.784 0.703-15.988 0.878-21.609 0.527-7.73 0-12.298-0.703-13.704-2.108 27.407-9.487 41.11-33.555 41.11-72.206 0-26.002-3.864-71.68-11.594-137.036-6.325-52.706-10.717-85.736-13.177-99.088-2.108-10.19-5.271-20.731-9.488-31.624-4.568-11.947-7.729-21.259-9.486-27.935 14.406 4.568 31.975 6.853 52.706 6.853 1.054 0 7.203-0.35 18.447-1.053 11.595-0.351 17.744-0.529 18.447-0.529 4.216 0 6.674 1.406 7.377 4.217-14.758 0.703-27.757 8.258-39.001 22.664-11.244 14.758-16.515 29.339-15.812 43.745 0.351 15.46 0.351 23.542 0 24.245l7.377 111.738c0 15.812 2.635 44.448 7.906 85.91 10.19-16.515 40.409-72.032 90.655-166.551 41.462-78.005 63.949-117.007 67.463-117.007 9.487 0 34.261 42.165 74.317 126.495 24.948 54.463 50.070 108.926 75.369 163.389l6.853-103.832 2.108-183.416c-0.703-2.811-1.055-4.92-1.055-6.326 0-5.973 7.38-8.959 22.137-8.959l63.247 2.635c7.379 0 12.122 0.703 14.23 2.108-1.405 2.108-7.027 3.865-16.865 5.271-9.487 1.757-15.11 6.325-16.867 13.704-4.919 22.137-8.783 50.774-11.594 85.912-1.054 16.515-2.46 45.325-4.217 86.436l-0.527 122.806c0 1.054 0.703 8.784 2.108 23.191 0.703 9.487 2.284 14.933 4.744 16.339 4.216 2.811 6.324 4.918 6.324 6.324-21.082-1.405-44.976-3.338-71.68-5.798-7.73-32.326-19.853-67.288-36.367-104.885l-45.327-104.357c-18.974-43.922-30.922-68.87-35.841-74.843-20.731 31.272-46.206 75.371-76.424 132.294-33.732 63.95-57.625 115.6-71.68 154.954-2.108 5.622-4.919 8.435-8.433 8.435zM223.472 630.889l-44.8-1.053c-55.517-1.757-99.967-21.61-133.347-59.559-30.218-34.083-45.327-74.842-45.327-122.277 0-47.787 14.055-89.249 42.165-124.386 31.624-39.354 73.613-59.032 125.967-59.032h6.851c4.216 0.351 6.676 0.529 7.379 0.529 33.381 0 67.815 7.728 103.304 23.189 47.787 20.731 71.682 48.665 71.682 83.803 0 17.569-7.555 30.395-22.664 38.476-10.893 5.973-24.597 8.959-41.112 8.959l-64.828-3.689c-3.162-0.351-4.569-1.758-4.217-4.217 9.838-3.514 17.744-5.446 23.718-5.798 6.676-2.108 14.056-6.676 22.137-13.704 8.433-6.676 14.405-13.528 17.918-20.555 7.027-12.298 10.541-26.003 10.541-41.112 0-26.704-15.46-40.057-46.38-40.057-52.706 0-100.142 18.975-142.306 56.923-43.922 39.354-65.883 86.087-65.883 140.198 0 58.328 22.311 96.803 66.936 115.426 21.785 9.136 38.651 13.704 50.598 13.704 0.703 0 1.231-0.176 1.582-0.527 0.703-0.351 1.405-0.527 2.108-0.527s3.514 0.35 8.433 1.053c5.271 0.703 8.256 1.053 8.959 1.053 22.488 0 44.626-3.514 66.411-10.541 35.137-10.893 52.706-28.461 52.706-52.706 0-2.108-0.878-6.5-2.635-13.177s-2.635-10.19-2.635-10.541v-4.216c4.568 3.162 7.026 5.798 7.377 7.906 1.757 7.027 4.57 14.581 8.435 22.663 2.811 5.973 9.136 15.11 18.974 27.408 10.19 12.298 16.163 20.204 17.92 23.718-41.813 10.19-62.896 15.285-63.247 15.285-23.893 4.919-44.8 7.377-62.72 7.377z" />
<glyph unicode="&#xe927;" glyph-name="fide-title-fm" data-tags="fm" horiz-adv-x="896" d="M264.476 671.69q-4.327-4.327-12.977-15.447-4.943-8.032-7.415-20.391-3.709-15.447-4.943-19.156-3.709 1.853-6.179 8.65-8.65 19.773-41.402 22.247l-77.241 2.471q-23.481 0-24.717-2.471-1.236-17.92-2.471-35.222l-3.091-160.044q12.359-3.709 52.523-3.709 1.236 0 22.864 0.618 21.627 0 22.864 0 20.391 0 55.614 15.447 1.236-1.853 1.236-3.709 0-0.618-4.943-12.359-4.943-11.123-6.797-17.92-2.471-11.123-4.327-22.247-3.709-15.447-7.415-19.773 0.618 25.952-6.179 33.367t-33.367 11.741q-20.391 2.471-35.84 2.471h-56.231v-70.443q0.618-22.247 2.471-67.973 1.236-17.302 2.471-35.84 1.853-18.538 7.415-20.391 17.92-6.179 31.515-8.032 7.415-1.236 9.888-4.943-3.091-3.091-13.595-3.091l-99.486-1.236q-4.327 0-9.888 3.709 11.123 12.977 14.211 46.963v318.232q-3.091 17.302-6.179 34.605-6.179 22.864-22.864 25.335v6.179q5.561 0 16.067 0.618 10.505 0 10.505 0 12.977 0 35.84 1.853 23.481 2.471 33.985 3.091l130.383 3.091q0.618 0 14.829 1.236 14.829 1.853 22.864 2.471zM895.997 234.815q-3.709-2.471-16.684-2.471l-74.152-3.091q-25.952 0-25.952 10.505 0 2.471 1.236 7.415l-2.471 215.040-8.032 121.733q-44.49-95.778-88.363-191.558-70.443-148.303-87.128-148.303-6.179 0-79.095 137.18-88.363 166.223-106.283 195.265-9.268-72.916-9.268-100.722l-8.65-131.001q0.618-1.236 0-28.426-1.236-25.335 18.538-51.287 19.773-25.335 45.726-26.57-1.236-4.943-8.65-4.943-1.236 0-21.627 0.618-19.773 1.236-21.627 1.236-36.458 0-61.793-8.032 3.091 11.741 11.123 32.749 7.415 19.156 11.123 37.076 4.327 23.481 15.447 116.171 13.595 114.934 13.595 160.662 0 67.973-48.199 84.657 2.471 2.471 16.067 2.471 9.888 0.618 25.335-0.618 16.067-1.236 15.447-1.236l45.726 4.327q6.179 0 9.888-9.888 24.717-69.208 84.039-181.67 53.142-100.104 89.599-155.1 8.65 10.505 42.019 87.746 26.57 61.175 53.142 122.351 29.043 66.119 42.637 122.968 46.963 4.327 84.039 6.797 0-2.471-7.415-7.415-4.327-2.471-5.561-19.156-2.471-25.335-2.471-27.188l0.618-143.977q3.091-72.298 4.943-101.34 4.943-61.793 13.595-100.722 3.091-12.977 19.773-16.067 17.302-2.471 19.773-6.179z" />
<glyph unicode="&#xe928;" glyph-name="fsi-master-logo" data-tags="fsi-master-logo" d="M440.166 959.072c-29.091-7.018-20.073-47.247 8.987-42.353 16.326 2.754 20.111 22.775 13.856 32.562-5.208 8.171-13.7 10.674-22.843 9.791zM815.779 958.999c-4.415-1.317-7.828-2.37-11.18-5.782-14.965-15.234-1.928-41.644 21.655-36.242 15.025 3.442 20.47 23.45 10.997 35.018-5.208 6.36-13.752 8.098-21.473 7.005zM640.914 949.29c-3.584 0.226-7.268-0.239-10.696-0.95-21.010-9.024-16.486-39.715 5.992-42.124 23.195-2.485 32.143 28.191 14.815 39.877-3.038 2.050-6.527 2.971-10.111 3.196zM441.663 904.416v-142.156c-18.197 2.559-19.425 4.339-19.454 17.957v94.277c-11.194-6.659-20.843-35.201-30.196-42.563l-16.194-8.129c-8.171-4.669-18.85-12.886-25.301-19.665-5.253-5.537-12.287-15.719-16.102-22.423-2.38-4.19-5.945-12.906-8.713-15.884-4.848-5.208-14.561-6.505-25.949-18.596l-57.414-71.773-52.135-65.845c-20.157-31.904-5.976-74.318 28.488-88.999 7.946-3.397 16.922-3.871 25.437-3.781 6.255 0.075 18.485 1.582 23.364 5.562 2.978 2.439 6.121 8.847 8.859 12.395 5.686 7.377 16.173 17.079 24.642 21.044 18.811 8.949 26.136-0.763 44.901 0l26.935 4.393c-8.41-28.223-21.525-47.333-43.403-67.087l-56.446-48.135c-15.534-17.464-29.691-36.17-40.645-56.866-14.86-28.089-28.457-74.422-28.607-106.252-0.075-17.523 1.671-29.63 7.088-46.389 9.442-29.136 26.638-47.674 43.787-71.827l38.909 29.373 98.772 78.056 348.669 276.33 41.905 32.251v-28.433c-0.090-18.527-11.916-22.293-25.31-33.082l-74.951-59.515-92.789-74.33-308.271-245.12c-2.574-2.035-7.124-5.108-7.617-8.595-0.509-3.592 3.175-7.721 5.27-10.34l16.012-19.454c20.92-24.422 50.613-55.41 74.631-76.54 32.622-28.732 60.648-48.488 98.762-69.169 11.358-6.165 39.99-19.224 52.381-19.793 6.854-0.315 16.575 5.799 22.441 9.271l40.407 22.843c38.13 22.372 92.362 58.804 123.953 88.898 14.8 14.097 27.941 29.782 40.316 45.988 39.491 51.733 76.554 134.551 76.659 200.53v172.087l-1.488 22.45v98.762l1.416 22.45v19.454l-1.416 17.957v248.409c-7.467-5.596-22.956-23.698-30.050-31.419l-55.122-59.862c-7.497-8.081-22.488-27.125-31.557-31.419l-22.15 34.415-31.758 46.389-16.422 23.939c-9.308-6.989-23.016-27.31-30.917-37.411l-30.132-38.909c-6.001-7.661-16.114-19.865-19.765-28.424l-27.191 28.424-57.999 64.355-28.543 29.922zM631.717 814.632h2.996l38.7-56.866 30.132-44.892 52.674 57.496c7.153 7.647 14.354 18.461 23.647 23.309v-148.148l-1.526-11.718-13.435-11.718-25.447-20.541-122.702-97.32-22.45-15.828c3.426 24.258 7.764 42.172 7.48 67.342l-2.584 23.939c-4.639 32.429-13.662 59.008-31.365 86.797-13.782 21.624-34.104 43.184-54.336 58.867-23.27 18.032-29.886 11.628-29.931 30.917v37.411c7.543-4.1 12.541-11.657 18.213-17.957l33.74-37.411c3.023-3.442 15.119-18.181 18.486-19.154 5.762-1.676 17.045 16.206 20.532 20.651l41.266 53.87 15.911 20.953zM377.317 771.239h2.996l5.983-47.888 13.473 10.476c4.789-9.308 17.522-10.032 26.935-12.321 16.326-3.981 32.039-10.445 46.389-19.199 54.516-33.281 87.53-91.503 86.797-155.537-0.315-26.337-7.565-49.712-14.029-74.823-1.466-5.716-5.574-26.174-8.029-29.675-2.38-3.426-12.976-11.224-16.852-14.322l-37.411-29.721-79.316-63.141-50.875-40.28-64.346-51.313c-4.279-3.367-19.109-16.825-23.793-16.705-4.474 0.12-8.23 8.178-9.892 11.709-6.644 14.127-9.898 27.831-9.719 43.394 0.135 10.595 2.665 22.577 5.015 32.918 8.829 38.998 27.355 76.503 56.446 104.516 30.662 29.511 64.563 47.033 87.518 85.537 13.558 22.747 26.068 60.265 26.113 86.797v16.458c-0.030 23.6-16.165 43.623-22.45 65.845-10.715-20.905-14.904-59.769-35.914-71.517-17.912-9.442-27.533-0.523-44.892 0-12.391-0.179-23.261-2.842-34.424-8.348-10.041-4.953-20.382-12.722-28.433-20.46-2.844-2.739-11.040-12.017-13.719-13.244-5.657-2.574-12.12 2.803-14.934 7.353-4.894 7.901-2.127 15.426 2.722 22.414l24.615 31.428 54.893 68.831c5.806 7.258 20.308 27.418 27.237 31.219 8.44 4.639 30.133 3.206 40.398 3.206-2.769 6.51-8.992 18.628-8.348 25.437 0.643 6.913 6.465 14.892 9.846 20.953zM633.215 362.699v-299.292c-0.030-17.599-8.593-20.060-22.45-29.054l-62.849-38.909c-6.18-3.546-23.705-14.5-29.931-14.769-6.944-0.284-27.427 10.744-34.415 14.276-3.651 1.84-8.61 4.094-11.079 7.416-2.828 3.786-2.378 8.693-2.393 13.152v206.512c0.015 3.891-0.285 8.41 1.526 11.956 3.143 6.136 27.534 24.131 34.388 29.429l86.797 69.178c10.835 8.425 28.51 25.451 40.407 30.104z" />
</font>
</defs>
</svg>
